<svg xmlns="http://www.w3.org/2000/svg" width="192" height="34.138" viewBox="0 0 192 34.138"><defs><style>.a{fill:#b5b5b6;}</style></defs><g transform="translate(-1344 -2790.897)"><path class="a" d="M1375.116,2803.334a9.712,9.712,0,0,1,2.327,6.915v12.438a2.189,2.189,0,0,1-.609,1.587,2.229,2.229,0,0,1-3.827-1.587v-12.438a5.562,5.562,0,0,0-1.327-4.023,4.7,4.7,0,0,0-3.544-1.369,4.855,4.855,0,0,0-3.718,1.565,5.643,5.643,0,0,0-1.457,4v12.264a2.189,2.189,0,0,1-.609,1.587,2.228,2.228,0,0,1-3.826-1.587v-12.438a5.566,5.566,0,0,0-1.327-4.023,4.7,4.7,0,0,0-3.544-1.369,4.9,4.9,0,0,0-3.762,1.565,5.639,5.639,0,0,0-1.457,4v12.264a2.193,2.193,0,0,1-.608,1.587,2.23,2.23,0,0,1-3.828-1.587v-19.353a2.135,2.135,0,0,1,.631-1.609,2.195,2.195,0,0,1,1.587-.608,2.162,2.162,0,0,1,1.566.587,2.2,2.2,0,0,1,.652,1.543,7.984,7.984,0,0,1,2.7-1.761,9,9,0,0,1,3.392-.63,8.693,8.693,0,0,1,3.98.891,7.653,7.653,0,0,1,2.892,2.544,9.075,9.075,0,0,1,3.261-2.522,10.158,10.158,0,0,1,4.349-.913A7.99,7.99,0,0,1,1375.116,2803.334Z"/><path class="a" d="M1405.993,2802.486a11.722,11.722,0,0,1,4.306,4.349,12.139,12.139,0,0,1,1.586,6.154v9.7a2.218,2.218,0,1,1-4.435,0v-1.609a10.952,10.952,0,0,1-14.069,2.392,10.976,10.976,0,0,1-4-4.327,12.978,12.978,0,0,1-1.457-6.154,12.256,12.256,0,0,1,1.565-6.154,11.447,11.447,0,0,1,4.328-4.349,12.045,12.045,0,0,1,6.11-1.587A11.822,11.822,0,0,1,1405.993,2802.486Zm-2.131,17.57a7.51,7.51,0,0,0,2.761-2.914,8.581,8.581,0,0,0,1-4.153,8.712,8.712,0,0,0-1-4.175,7.667,7.667,0,0,0-10.632-2.936,7.655,7.655,0,0,0-2.784,2.936,8.567,8.567,0,0,0-1.022,4.175,8.439,8.439,0,0,0,1.022,4.153,7.677,7.677,0,0,0,2.784,2.914,7.8,7.8,0,0,0,7.871,0Z"/><path class="a" d="M1434.3,2821.121a2.272,2.272,0,0,1,.543,1.566,1.961,1.961,0,0,1-.717,1.566,2.759,2.759,0,0,1-1.848.608h-.784a7.151,7.151,0,0,1-3.892-1.109,7.713,7.713,0,0,1-2.761-3.022,9.135,9.135,0,0,1-1-4.306v-10.741h-2a2.094,2.094,0,0,1-1.479-.522,1.7,1.7,0,0,1-.565-1.3,1.8,1.8,0,0,1,.565-1.391,2.093,2.093,0,0,1,1.479-.522h2v-6.262a2.176,2.176,0,1,1,4.35,0v6.262h3.7a2.091,2.091,0,0,1,1.478.522,1.8,1.8,0,0,1,.566,1.391,1.7,1.7,0,0,1-.566,1.3,2.091,2.091,0,0,1-1.478.522h-3.7v10.741a4.454,4.454,0,0,0,.956,2.914,2.919,2.919,0,0,0,2.348,1.174h1.479A1.717,1.717,0,0,1,1434.3,2821.121Z"/><path class="a" d="M1461.483,2802.486a11.714,11.714,0,0,1,4.306,4.349,12.129,12.129,0,0,1,1.587,6.154v9.7a2.218,2.218,0,1,1-4.436,0v-1.609a10.951,10.951,0,0,1-14.068,2.392,11,11,0,0,1-4-4.327,12.988,12.988,0,0,1-1.456-6.154,12.258,12.258,0,0,1,1.566-6.154,11.442,11.442,0,0,1,4.326-4.349,12.053,12.053,0,0,1,6.11-1.587A11.815,11.815,0,0,1,1461.483,2802.486Zm-2.131,17.57a7.52,7.52,0,0,0,2.762-2.914,8.592,8.592,0,0,0,1-4.153,8.722,8.722,0,0,0-1-4.175,7.668,7.668,0,0,0-10.633-2.936,7.647,7.647,0,0,0-2.783,2.936,8.556,8.556,0,0,0-1.022,4.175,8.429,8.429,0,0,0,1.022,4.153,7.668,7.668,0,0,0,2.783,2.914,7.8,7.8,0,0,0,7.871,0Z"/><path class="a" d="M1496.839,2802.465a10.974,10.974,0,0,1,4,4.327,12.973,12.973,0,0,1,1.458,6.153,12.251,12.251,0,0,1-1.566,6.154,11.428,11.428,0,0,1-4.328,4.349,12.03,12.03,0,0,1-6.11,1.587,11.73,11.73,0,0,1-10.372-5.936,12.125,12.125,0,0,1-1.586-6.154v-19.83a2.131,2.131,0,0,1,.63-1.609,2.209,2.209,0,0,1,3.805,1.609v11.742a10.948,10.948,0,0,1,14.069-2.392Zm-2.61,17.591a7.646,7.646,0,0,0,2.784-2.936,8.56,8.56,0,0,0,1.022-4.175,8.443,8.443,0,0,0-1.022-4.153,7.707,7.707,0,0,0-2.784-2.914,7.593,7.593,0,0,0-10.632,2.914,8.585,8.585,0,0,0-1,4.153,8.7,8.7,0,0,0,1,4.175,7.666,7.666,0,0,0,10.632,2.936Z"/><path class="a" d="M1530.108,2802.486a11.712,11.712,0,0,1,4.3,4.349,12.13,12.13,0,0,1,1.587,6.154v9.7a2.218,2.218,0,1,1-4.436,0v-1.609a10.951,10.951,0,0,1-14.068,2.392,10.979,10.979,0,0,1-4-4.327,12.976,12.976,0,0,1-1.457-6.154,12.258,12.258,0,0,1,1.566-6.154,11.438,11.438,0,0,1,4.327-4.349,12.048,12.048,0,0,1,6.11-1.587A11.823,11.823,0,0,1,1530.108,2802.486Zm-2.132,17.57a7.512,7.512,0,0,0,2.762-2.914,8.592,8.592,0,0,0,1-4.153,8.722,8.722,0,0,0-1-4.175,7.668,7.668,0,0,0-10.633-2.936,7.654,7.654,0,0,0-2.783,2.936,8.556,8.556,0,0,0-1.022,4.175,8.429,8.429,0,0,0,1.022,4.153,7.675,7.675,0,0,0,2.783,2.914,7.8,7.8,0,0,0,7.871,0Z"/></g></svg>