<svg xmlns="http://www.w3.org/2000/svg" viewBox="0 0 1840 1560"><defs><style>.cls-1{fill:none;}.cls-2{fill:#fff;}.cls-3{fill:#7f7f7f;}.cls-4,.cls-5,.cls-6,.cls-7,.cls-8,.cls-9{isolation:isolate;}.cls-5,.cls-6,.cls-7,.cls-8,.cls-9{font-size:69.6px;font-family:Futura-Medium, Futura;font-weight:500;}.cls-6{letter-spacing:0.03em;}.cls-7{letter-spacing:-0.03em;}.cls-8{letter-spacing:0.02em;}.cls-9{letter-spacing:0.01em;}.cls-10{fill:#f2275c;}</style></defs><g id="레이어_2" data-name="레이어 2"><g id="레이어_1-2" data-name="레이어 1"><rect class="cls-1" width="1840" height="1560"/><rect class="cls-2" width="1840" height="1560"/><path class="cls-3" d="M900.12,886.06a26.62,26.62,0,1,0,26.62,26.62h0a26.61,26.61,0,0,0-26.6-26.62Zm0,34.94a8.33,8.33,0,1,1,8.32-8.34v0a8.31,8.31,0,0,1-8.32,8.32Z"/><path class="cls-3" d="M538.89,1081.57a26.62,26.62,0,1,0,26.61,26.63h0A26.62,26.62,0,0,0,538.89,1081.57Zm0,34.94a8.33,8.33,0,1,1,8.32-8.34v0a8.34,8.34,0,0,1-8.32,8.32Z"/><g class="cls-4"><text class="cls-5" transform="translate(281.53 1210.66)">L</text><text class="cls-5" transform="translate(312.52 1210.66)">u</text><text class="cls-6" transform="translate(350.45 1210.66)">c</text><text class="cls-5" transform="translate(385.41 1210.66)">ky Hana APT</text></g><g class="cls-4"><text class="cls-7" transform="translate(945.94 1055.78)">P</text><text class="cls-5" transform="translate(981.66 1055.78)">a</text><text class="cls-8" transform="translate(1023.39 1055.78)">r</text><text class="cls-5" transform="translate(1050.47 1055.78)">is Bagu</text><text class="cls-9" transform="translate(1279.99 1055.78)">e</text><text class="cls-5" transform="translate(1319.1 1055.78)">t</text><text class="cls-9" transform="translate(1338.13 1055.78)">t</text><text class="cls-5" transform="translate(1357.77 1055.78)">e</text></g><path class="cls-10" d="M979.59,445.44c.92.12,1.84.21,2.75.35,11.95,2,20.44,8.51,25.31,19.54,3.18,7.18,3.26,14.64,1,22.16a81.78,81.78,0,0,1-7.85,17.62,182.72,182.72,0,0,1-20.34,28.16c-1.79,2.08-3.53,2.08-5.31,0-8.6-10-16.44-20.57-22.59-32.29-2.82-5.36-5.29-10.88-6.41-16.88-2.15-11.77,1.2-21.84,9.85-30.1a31.41,31.41,0,0,1,18.29-8.38c.6-.08,1.21-.13,1.81-.2Zm-1.86,48.65a16.1,16.1,0,1,0-.09,0Z"/><circle class="cls-2" cx="977.84" cy="600.78" r="63.39"/><path d="M914.43,600.85A63.42,63.42,0,1,1,978,664.17h-.26A63.53,63.53,0,0,1,914.43,600.85Zm63.4,58.44c32.12,0,58.49-26.23,58.51-58.22,0-32.33-26.11-58.79-58.08-58.81-32.51,0-58.89,26.09-58.91,58.3a58.59,58.59,0,0,0,58.45,58.73Z"/><path d="M992.73,599.84l-19.55,7.28L994,555.94l6.25,2.52c-5,12.28-9.94,24.45-15,37l19.43-7.23-20.77,51.92-6.25-2.49C982.63,625.11,987.61,612.67,992.73,599.84Z"/><path d="M945.94,638.09c8.65-21.25,17.12-42.08,25.72-63.23l-12.33,4.58c-.79-2.08-1.55-4.11-2.37-6.29l26.74-10L958,626.37l12.34-4.57c.78,2.1,1.54,4.12,2.36,6.3Z"/><rect y="1372.73" width="1840" height="18.81"/><rect x="890.71" y="975.75" width="18.81" height="406.39"/><rect x="177.65" y="763.15" width="1662.35" height="18.81"/><path d="M900.12,985.16c-117.23,0-212.6-95.38-212.6-212.61V0h18.81V772.55c0,106.86,86.93,193.79,193.79,193.79s193.79-86.93,193.79-193.79h18.81C1112.72,889.78,1017.35,985.16,900.12,985.16Z"/><rect x="890.71" width="18.81" height="772.56"/><rect x="168.24" width="18.81" height="1382.14"/><rect x="1093.9" width="18.82" height="772.55"/><rect x="1613.17" width="18.82" height="772.55"/></g></g></svg>