<svg xmlns="http://www.w3.org/2000/svg" width="108.001" height="107.999" viewBox="0 0 108.001 107.999"><g transform="translate(8044.736 -486)"><path d="M-8017.861,571.738l21.935-53.924-10.59,3.954-1.98-5.305,22.676-8.464-21.936,53.924,10.591-3.954,1.98,5.305Z"/><path d="M-7985.616,573.5l-5.258-2.1,12.908-32.281-16.681,6.227,17.708-43.532,5.245,2.133-12.847,31.583,16.586-6.191Z"/><path d="M-7994.466,593.869a54.059,54.059,0,0,1-50.139-57.6,54.059,54.059,0,0,1,57.6-50.137,54.059,54.059,0,0,1,50.138,57.6A54.06,54.06,0,0,1-7994.466,593.869Zm7.181-103.672a49.979,49.979,0,0,0-53.253,46.353,49.979,49.979,0,0,0,46.353,53.253,49.979,49.979,0,0,0,53.253-46.353A49.979,49.979,0,0,0-7987.285,490.2Z"/></g></svg>