<svg xmlns="http://www.w3.org/2000/svg" width="574.426" height="19.758" viewBox="0 0 574.426 19.758"><g transform="translate(8277.553 -646.247)"><path d="M-8277.553,661.329V646.836l9.9,10.353v-9.43h2.048v14.4l-9.9-10.327v9.5Z"/><path d="M-8254.737,657.515h-6.135a2.6,2.6,0,0,0,.687,1.678,2.086,2.086,0,0,0,1.556.616,2.023,2.023,0,0,0,1.221-.352,4.974,4.974,0,0,0,1.081-1.3l1.67.932a6.743,6.743,0,0,1-.816,1.13,4.388,4.388,0,0,1-.924.773,3.735,3.735,0,0,1-1.062.444,5.218,5.218,0,0,1-1.24.14,4.033,4.033,0,0,1-3.076-1.23,4.619,4.619,0,0,1-1.159-3.287,4.74,4.74,0,0,1,1.125-3.287,3.876,3.876,0,0,1,3.006-1.24,3.843,3.843,0,0,1,2.987,1.2,4.734,4.734,0,0,1,1.091,3.314Zm-2.029-1.618a1.9,1.9,0,0,0-2-1.582,2.093,2.093,0,0,0-.678.11,1.966,1.966,0,0,0-.575.316,2.039,2.039,0,0,0-.444.5,2.344,2.344,0,0,0-.281.659Z"/><path d="M-8251.775,652.769l2.241,4.886,2.417-5.669,2.436,5.669,2.215-4.886h2.215l-4.483,9.2-2.382-5.511-2.408,5.511-4.474-9.2Z"/><path d="M-8225.5,649.684h-5.439v3.26h5.281v1.925h-5.281V659.4h5.439v1.925h-7.488v-13.57h7.488Z"/><path d="M-8220.53,656.7l-3.076-3.928h2.355l1.908,2.5,1.941-2.5h2.427l-3.164,3.928,3.665,4.632h-2.356l-2.513-3.2-2.575,3.2h-2.417Z"/><path d="M-8211.161,665.987h-1.977V652.769h1.977v.931a3.663,3.663,0,0,1,2.655-1.169,3.7,3.7,0,0,1,2.909,1.3,4.7,4.7,0,0,1,1.16,3.261,4.631,4.631,0,0,1-1.151,3.208,3.707,3.707,0,0,1-2.883,1.274,3.685,3.685,0,0,1-2.69-1.2Zm4.7-8.885a2.949,2.949,0,0,0-.668-2,2.158,2.158,0,0,0-1.705-.783,2.257,2.257,0,0,0-1.766.756,2.867,2.867,0,0,0-.678,1.987,2.929,2.929,0,0,0,.678,1.986,2.218,2.218,0,0,0,1.758.765,2.144,2.144,0,0,0,1.7-.774A2.806,2.806,0,0,0-8206.459,657.1Z"/><path d="M-8194.549,657.515h-6.135a2.6,2.6,0,0,0,.685,1.678,2.089,2.089,0,0,0,1.556.616,2.029,2.029,0,0,0,1.223-.352,5.013,5.013,0,0,0,1.081-1.3l1.67.932a6.693,6.693,0,0,1-.818,1.13,4.379,4.379,0,0,1-.922.773,3.747,3.747,0,0,1-1.064.444,5.213,5.213,0,0,1-1.238.14,4.027,4.027,0,0,1-3.076-1.23,4.611,4.611,0,0,1-1.161-3.287,4.74,4.74,0,0,1,1.125-3.287,3.876,3.876,0,0,1,3.006-1.24,3.85,3.85,0,0,1,2.989,1.2,4.742,4.742,0,0,1,1.089,3.314Zm-2.031-1.618a1.894,1.894,0,0,0-2-1.582,2.083,2.083,0,0,0-.677.11,1.984,1.984,0,0,0-.576.316,2.035,2.035,0,0,0-.443.5,2.315,2.315,0,0,0-.28.659Z"/><path d="M-8192.387,652.769h1.977v.764a3.8,3.8,0,0,1,.967-.782,2.212,2.212,0,0,1,1.02-.22,3.189,3.189,0,0,1,1.634.51l-.9,1.811a1.886,1.886,0,0,0-1.1-.4q-1.617,0-1.617,2.444v4.438h-1.977Z"/><path d="M-8185.681,649.209a1.222,1.222,0,0,1,.378-.9,1.235,1.235,0,0,1,.905-.378,1.246,1.246,0,0,1,.914.378,1.215,1.215,0,0,1,.378.905,1.246,1.246,0,0,1-.378.914,1.217,1.217,0,0,1-.905.378,1.245,1.245,0,0,1-.914-.378A1.256,1.256,0,0,1-8185.681,649.209Zm2.276,3.56v8.56h-1.977v-8.56Z"/><path d="M-8173.1,657.515h-6.135a2.6,2.6,0,0,0,.686,1.678,2.088,2.088,0,0,0,1.555.616,2.026,2.026,0,0,0,1.222-.352,5,5,0,0,0,1.081-1.3l1.67.932a6.745,6.745,0,0,1-.817,1.13,4.386,4.386,0,0,1-.923.773,3.738,3.738,0,0,1-1.064.444,5.214,5.214,0,0,1-1.239.14,4.03,4.03,0,0,1-3.076-1.23,4.613,4.613,0,0,1-1.16-3.287,4.74,4.74,0,0,1,1.125-3.287,3.878,3.878,0,0,1,3.006-1.24,3.848,3.848,0,0,1,2.988,1.2,4.74,4.74,0,0,1,1.09,3.314Zm-2.03-1.618a1.9,1.9,0,0,0-2-1.582,2.081,2.081,0,0,0-.677.11,1.956,1.956,0,0,0-.576.316,2.029,2.029,0,0,0-.444.5,2.3,2.3,0,0,0-.281.659Z"/><path d="M-8170.942,652.769h1.986v.791a3.242,3.242,0,0,1,2.338-1.029,2.952,2.952,0,0,1,2.329.941,3.847,3.847,0,0,1,.721,2.61v5.247h-1.986v-4.781a3.13,3.13,0,0,0-.352-1.749,1.417,1.417,0,0,0-1.248-.492,1.524,1.524,0,0,0-1.4.65,4.469,4.469,0,0,0-.405,2.241v4.131h-1.986Z"/><path d="M-8154.41,653.138v2.628a4.8,4.8,0,0,0-1.213-1.134,2.359,2.359,0,0,0-1.239-.317,2.44,2.44,0,0,0-1.854.783,2.738,2.738,0,0,0-.739,1.96,2.809,2.809,0,0,0,.712,1.977,2.4,2.4,0,0,0,1.837.774,2.513,2.513,0,0,0,1.257-.308,4.957,4.957,0,0,0,1.239-1.16v2.61a5.188,5.188,0,0,1-2.408.624,4.609,4.609,0,0,1-3.322-1.283,4.282,4.282,0,0,1-1.336-3.208,4.341,4.341,0,0,1,1.353-3.234,4.582,4.582,0,0,1,3.323-1.319A4.956,4.956,0,0,1-8154.41,653.138Z"/><path d="M-8144.7,657.515h-6.135a2.6,2.6,0,0,0,.686,1.678,2.087,2.087,0,0,0,1.556.616,2.023,2.023,0,0,0,1.221-.352,4.974,4.974,0,0,0,1.081-1.3l1.67.932a6.69,6.69,0,0,1-.817,1.13,4.384,4.384,0,0,1-.923.773,3.75,3.75,0,0,1-1.063.444,5.221,5.221,0,0,1-1.24.14,4.031,4.031,0,0,1-3.076-1.23,4.615,4.615,0,0,1-1.16-3.287,4.74,4.74,0,0,1,1.125-3.287,3.876,3.876,0,0,1,3.006-1.24,3.846,3.846,0,0,1,2.988,1.2,4.736,4.736,0,0,1,1.09,3.314Zm-2.03-1.618a1.894,1.894,0,0,0-2-1.582,2.085,2.085,0,0,0-.677.11,1.971,1.971,0,0,0-.576.316,2.034,2.034,0,0,0-.443.5,2.3,2.3,0,0,0-.282.659Z"/><path d="M-8099.531,649.684v11.645h-2.048V649.684h-3.12v-1.925h8.28v1.925Z"/><path d="M-8087.912,657.515h-6.134a2.592,2.592,0,0,0,.685,1.678,2.087,2.087,0,0,0,1.556.616,2.024,2.024,0,0,0,1.221-.352,5,5,0,0,0,1.082-1.3l1.669.932a6.636,6.636,0,0,1-.817,1.13,4.386,4.386,0,0,1-.923.773,3.726,3.726,0,0,1-1.063.444,5.216,5.216,0,0,1-1.24.14,4.032,4.032,0,0,1-3.076-1.23,4.617,4.617,0,0,1-1.16-3.287,4.74,4.74,0,0,1,1.125-3.287,3.876,3.876,0,0,1,3.006-1.24,3.845,3.845,0,0,1,2.988,1.2,4.736,4.736,0,0,1,1.09,3.314Zm-2.03-1.618a1.894,1.894,0,0,0-2-1.582,2.085,2.085,0,0,0-.677.11,1.965,1.965,0,0,0-.576.316,2.034,2.034,0,0,0-.443.5,2.332,2.332,0,0,0-.282.659Z"/><path d="M-8085.75,652.769h1.987v.791a3.24,3.24,0,0,1,2.338-1.029,2.952,2.952,0,0,1,2.329.941,3.852,3.852,0,0,1,.72,2.61v5.247h-1.986v-4.781a3.139,3.139,0,0,0-.351-1.749,1.42,1.42,0,0,0-1.248-.492,1.524,1.524,0,0,0-1.4.65,4.482,4.482,0,0,0-.4,2.241v4.131h-1.987Z"/><path d="M-8070.9,654.228l-1.635.87c-.257-.528-.577-.791-.958-.791a.656.656,0,0,0-.465.18.6.6,0,0,0-.194.461q0,.492,1.143.976a6.793,6.793,0,0,1,2.118,1.248,2.137,2.137,0,0,1,.545,1.538,2.694,2.694,0,0,1-.914,2.074,3.108,3.108,0,0,1-2.145.791,3.112,3.112,0,0,1-3.05-2.1l1.688-.783a3.659,3.659,0,0,0,.536.783,1.224,1.224,0,0,0,.861.334q1,0,1-.914,0-.528-.773-.985c-.2-.1-.4-.2-.6-.29s-.4-.19-.606-.29a3.7,3.7,0,0,1-1.213-.844,2.077,2.077,0,0,1-.448-1.38,2.443,2.443,0,0,1,.764-1.845,2.683,2.683,0,0,1,1.9-.73A2.59,2.59,0,0,1-8070.9,654.228Z"/><path d="M-8068.875,649.209a1.222,1.222,0,0,1,.378-.9,1.236,1.236,0,0,1,.906-.378,1.247,1.247,0,0,1,.914.378,1.215,1.215,0,0,1,.378.905,1.246,1.246,0,0,1-.378.914,1.218,1.218,0,0,1-.906.378,1.246,1.246,0,0,1-.914-.378A1.256,1.256,0,0,1-8068.875,649.209Zm2.277,3.56v8.56h-1.978v-8.56Z"/><path d="M-8064.5,656.987a4.253,4.253,0,0,1,1.328-3.155,4.445,4.445,0,0,1,3.234-1.3,4.474,4.474,0,0,1,3.252,1.31,4.357,4.357,0,0,1,1.318,3.217,4.334,4.334,0,0,1-1.327,3.225,4.533,4.533,0,0,1-3.278,1.292,4.35,4.35,0,0,1-3.226-1.318A4.434,4.434,0,0,1-8064.5,656.987Zm2.022.035a2.888,2.888,0,0,0,.685,2.031,2.414,2.414,0,0,0,1.855.756,2.409,2.409,0,0,0,1.854-.747,2.818,2.818,0,0,0,.695-2,2.814,2.814,0,0,0-.695-1.995,2.41,2.41,0,0,0-1.854-.756,2.392,2.392,0,0,0-1.837.756A2.75,2.75,0,0,0-8062.476,657.022Z"/><path d="M-8053.274,652.769h1.986v.791a3.242,3.242,0,0,1,2.338-1.029,2.951,2.951,0,0,1,2.329.941,3.847,3.847,0,0,1,.721,2.61v5.247h-1.986v-4.781a3.13,3.13,0,0,0-.352-1.749,1.417,1.417,0,0,0-1.248-.492,1.524,1.524,0,0,0-1.4.65,4.469,4.469,0,0,0-.405,2.241v4.131h-1.986Z"/><path d="M-7996.171,658.033h-5.81l-1.512,3.3h-2.206l6.715-14.423,6.478,14.423h-2.242Zm-.835-1.925-2.013-4.614-2.109,4.614Z"/><path d="M-7991.188,652.769h1.978v.791a4.123,4.123,0,0,1,.975-.809,2.361,2.361,0,0,1,1.081-.22,2.623,2.623,0,0,1,2.294,1.266,2.969,2.969,0,0,1,2.523-1.266q2.89,0,2.891,3.507v5.291h-1.986v-4.755a3.674,3.674,0,0,0-.3-1.74,1.083,1.083,0,0,0-1.011-.519,1.288,1.288,0,0,0-1.19.616,3.948,3.948,0,0,0-.374,1.977v4.421h-1.987V656.6q0-2.286-1.318-2.286a1.324,1.324,0,0,0-1.218.624,3.906,3.906,0,0,0-.381,1.969v4.421h-1.978Z"/><path d="M-7976.95,652.769h1.978v.791a4.152,4.152,0,0,1,.975-.809,2.362,2.362,0,0,1,1.081-.22,2.623,2.623,0,0,1,2.294,1.266,2.969,2.969,0,0,1,2.523-1.266q2.892,0,2.891,3.507v5.291h-1.986v-4.755a3.655,3.655,0,0,0-.3-1.74,1.082,1.082,0,0,0-1.01-.519,1.289,1.289,0,0,0-1.191.616,3.948,3.948,0,0,0-.374,1.977v4.421h-1.986V656.6q0-2.286-1.319-2.286a1.321,1.321,0,0,0-1.217.624,3.9,3.9,0,0,0-.382,1.969v4.421h-1.978Z"/><path d="M-7960.734,652.769v4.913q0,2.127,1.679,2.127t1.678-2.127v-4.913h1.978v4.957a5.515,5.515,0,0,1-.255,1.775,2.985,2.985,0,0,1-.852,1.2,3.749,3.749,0,0,1-2.549.87,3.735,3.735,0,0,1-2.54-.87,3.033,3.033,0,0,1-.87-1.2,4.892,4.892,0,0,1-.246-1.775v-4.957Z"/><path d="M-7947.928,654.228l-1.635.87q-.387-.792-.958-.791a.659.659,0,0,0-.466.18.6.6,0,0,0-.193.461q0,.492,1.142.976a6.819,6.819,0,0,1,2.119,1.248,2.137,2.137,0,0,1,.544,1.538,2.692,2.692,0,0,1-.914,2.074,3.105,3.105,0,0,1-2.144.791,3.111,3.111,0,0,1-3.05-2.1l1.688-.783a3.659,3.659,0,0,0,.536.783,1.224,1.224,0,0,0,.861.334q1,0,1-.914,0-.528-.773-.985c-.2-.1-.4-.2-.6-.29s-.4-.19-.607-.29a3.686,3.686,0,0,1-1.212-.844,2.078,2.078,0,0,1-.449-1.38,2.441,2.441,0,0,1,.765-1.845,2.678,2.678,0,0,1,1.9-.73A2.59,2.59,0,0,1-7947.928,654.228Z"/><path d="M-7937.8,657.515h-6.135a2.6,2.6,0,0,0,.686,1.678,2.085,2.085,0,0,0,1.555.616,2.026,2.026,0,0,0,1.222-.352,4.993,4.993,0,0,0,1.081-1.3l1.67.932a6.639,6.639,0,0,1-.818,1.13,4.391,4.391,0,0,1-.922.773,3.755,3.755,0,0,1-1.064.444,5.218,5.218,0,0,1-1.239.14,4.029,4.029,0,0,1-3.076-1.23,4.611,4.611,0,0,1-1.16-3.287,4.74,4.74,0,0,1,1.125-3.287,3.873,3.873,0,0,1,3-1.24,3.85,3.85,0,0,1,2.989,1.2,4.743,4.743,0,0,1,1.09,3.314Zm-2.031-1.618a1.894,1.894,0,0,0-2-1.582,2.079,2.079,0,0,0-.676.11,1.976,1.976,0,0,0-.577.316,2.054,2.054,0,0,0-.443.5,2.3,2.3,0,0,0-.281.659Z"/><path d="M-7935.641,652.769h1.977v.791a4.124,4.124,0,0,1,.976-.809,2.359,2.359,0,0,1,1.081-.22,2.625,2.625,0,0,1,2.294,1.266,2.969,2.969,0,0,1,2.522-1.266q2.892,0,2.892,3.507v5.291h-1.986v-4.755a3.667,3.667,0,0,0-.3-1.74,1.083,1.083,0,0,0-1.011-.519,1.287,1.287,0,0,0-1.19.616,3.948,3.948,0,0,0-.374,1.977v4.421h-1.987V656.6q0-2.286-1.318-2.286a1.324,1.324,0,0,0-1.218.624,3.9,3.9,0,0,0-.382,1.969v4.421h-1.977Z"/><path d="M-7913.607,657.515h-6.135a2.6,2.6,0,0,0,.686,1.678,2.088,2.088,0,0,0,1.555.616,2.026,2.026,0,0,0,1.222-.352,4.974,4.974,0,0,0,1.081-1.3l1.67.932a6.718,6.718,0,0,1-.817,1.13,4.372,4.372,0,0,1-.923.773,3.744,3.744,0,0,1-1.064.444,5.208,5.208,0,0,1-1.239.14,4.03,4.03,0,0,1-3.076-1.23,4.617,4.617,0,0,1-1.16-3.287,4.74,4.74,0,0,1,1.125-3.287,3.878,3.878,0,0,1,3.006-1.24,3.846,3.846,0,0,1,2.988,1.2,4.736,4.736,0,0,1,1.09,3.314Zm-2.03-1.618a1.9,1.9,0,0,0-1.995-1.582,2.081,2.081,0,0,0-.677.11,1.969,1.969,0,0,0-.576.316,2.029,2.029,0,0,0-.444.5,2.329,2.329,0,0,0-.281.659Z"/><path d="M-7911.445,652.769h1.986v.791a3.242,3.242,0,0,1,2.338-1.029,2.952,2.952,0,0,1,2.329.941,3.847,3.847,0,0,1,.721,2.61v5.247h-1.986v-4.781a3.125,3.125,0,0,0-.352-1.749,1.417,1.417,0,0,0-1.248-.492,1.525,1.525,0,0,0-1.4.65,4.47,4.47,0,0,0-.4,2.241v4.131h-1.986Z"/><path d="M-7899.536,654.614v6.715h-1.977v-6.715h-.844v-1.845h.844v-3.138h1.977v3.138H-7898v1.845Z"/><path d="M-7847.364,648.488v2.426a5.679,5.679,0,0,0-3.674-1.485,4.677,4.677,0,0,0-3.524,1.5,5.065,5.065,0,0,0-1.441,3.656,4.942,4.942,0,0,0,1.441,3.6,4.76,4.76,0,0,0,3.533,1.468,4.341,4.341,0,0,0,1.837-.351,5.465,5.465,0,0,0,.875-.475,10.374,10.374,0,0,0,.953-.721v2.47a7.4,7.4,0,0,1-3.691.993,6.812,6.812,0,0,1-4.966-2.03,6.732,6.732,0,0,1-2.048-4.94,6.968,6.968,0,0,1,1.714-4.623,6.824,6.824,0,0,1,5.458-2.487A6.93,6.93,0,0,1-7847.364,648.488Z"/><path d="M-7838.847,652.769h1.986v8.56h-1.986v-.9a3.8,3.8,0,0,1-2.628,1.142,3.789,3.789,0,0,1-2.936-1.283,4.775,4.775,0,0,1-1.151-3.27,4.628,4.628,0,0,1,1.151-3.208,3.714,3.714,0,0,1,2.883-1.283,3.639,3.639,0,0,1,2.681,1.231Zm-4.694,4.253a2.978,2.978,0,0,0,.66,2,2.157,2.157,0,0,0,1.705.783,2.269,2.269,0,0,0,1.775-.756,2.932,2.932,0,0,0,.677-1.987,2.931,2.931,0,0,0-.677-1.986,2.237,2.237,0,0,0-1.758-.765,2.185,2.185,0,0,0-1.7.774A2.85,2.85,0,0,0-7843.541,657.022Z"/><path d="M-7832.387,646.484v14.845h-1.978V646.484Z"/><path d="M-7827.9,646.484v14.845h-1.977V646.484Z"/><path d="M-7825.7,649.209a1.221,1.221,0,0,1,.378-.9,1.235,1.235,0,0,1,.9-.378,1.243,1.243,0,0,1,.914.378,1.215,1.215,0,0,1,.378.905,1.246,1.246,0,0,1-.378.914,1.215,1.215,0,0,1-.905.378,1.245,1.245,0,0,1-.914-.378A1.255,1.255,0,0,1-7825.7,649.209Zm2.277,3.56v8.56h-1.978v-8.56Z"/><path d="M-7820.918,652.769h1.987v.791a3.241,3.241,0,0,1,2.338-1.029,2.952,2.952,0,0,1,2.329.941,3.852,3.852,0,0,1,.721,2.61v5.247h-1.987v-4.781a3.139,3.139,0,0,0-.351-1.749,1.42,1.42,0,0,0-1.248-.492,1.524,1.524,0,0,0-1.4.65,4.482,4.482,0,0,0-.4,2.241v4.131h-1.987Z"/><path d="M-7802.768,661.127c0,.4-.014.761-.039,1.067a7.769,7.769,0,0,1-.111.814,3.618,3.618,0,0,1-.826,1.661,4,4,0,0,1-3.19,1.336,4.256,4.256,0,0,1-2.821-.923,3.772,3.772,0,0,1-1.319-2.628h1.987a2.259,2.259,0,0,0,.377.976,2.125,2.125,0,0,0,1.793.8q2.172,0,2.171-2.663v-1.2a3.689,3.689,0,0,1-2.715,1.2,3.651,3.651,0,0,1-2.866-1.265,4.691,4.691,0,0,1-1.125-3.208,4.94,4.94,0,0,1,1.046-3.182,3.634,3.634,0,0,1,2.971-1.389,3.45,3.45,0,0,1,2.689,1.2v-.966h1.978Zm-1.9-4.061a2.879,2.879,0,0,0-.668-1.995,2.209,2.209,0,0,0-1.731-.764,2.126,2.126,0,0,0-1.775.835,3.026,3.026,0,0,0-.589,1.933,3,3,0,0,0,.589,1.916,2.13,2.13,0,0,0,1.775.818,2.171,2.171,0,0,0,1.793-.827A2.944,2.944,0,0,0-7804.667,657.066Z"/><path d="M-7795.122,656.987a4.253,4.253,0,0,1,1.328-3.155,4.445,4.445,0,0,1,3.234-1.3,4.474,4.474,0,0,1,3.252,1.31,4.357,4.357,0,0,1,1.318,3.217,4.334,4.334,0,0,1-1.327,3.225,4.533,4.533,0,0,1-3.278,1.292,4.35,4.35,0,0,1-3.226-1.318A4.434,4.434,0,0,1-7795.122,656.987Zm2.022.035a2.888,2.888,0,0,0,.685,2.031,2.414,2.414,0,0,0,1.855.756,2.409,2.409,0,0,0,1.854-.747,2.818,2.818,0,0,0,.695-2,2.814,2.814,0,0,0-.695-1.995,2.412,2.412,0,0,0-1.854-.756,2.392,2.392,0,0,0-1.837.756A2.75,2.75,0,0,0-7793.1,657.022Z"/><path d="M-7781.85,654.614v6.715h-1.986v-6.715h-.7v-1.845h.7v-3.3a3.583,3.583,0,0,1,.562-2.285,2.759,2.759,0,0,1,2.25-.932,3.869,3.869,0,0,1,1.327.308v2.021l-.2-.1a2.481,2.481,0,0,0-1.055-.325.715.715,0,0,0-.712.377,3.647,3.647,0,0,0-.184,1.424v2.822h2.153v1.845Z"/><path d="M-7770.574,655.818v5.511h-2.048v-13.57h2.321a10.481,10.481,0,0,1,2.575.237,3.451,3.451,0,0,1,1.547.9,3.86,3.86,0,0,1,1.169,2.882,3.721,3.721,0,0,1-1.248,2.954,4.942,4.942,0,0,1-3.367,1.089Zm0-1.9h.765q2.821,0,2.821-2.171,0-2.1-2.909-2.1h-.677Z"/><path d="M-7763.279,652.769h1.978v.764a3.77,3.77,0,0,1,.966-.782,2.214,2.214,0,0,1,1.02-.22,3.193,3.193,0,0,1,1.635.51l-.9,1.811a1.888,1.888,0,0,0-1.1-.4q-1.617,0-1.617,2.444v4.438h-1.978Z"/><path d="M-7748.874,657.515h-6.134a2.6,2.6,0,0,0,.685,1.678,2.09,2.09,0,0,0,1.556.616,2.03,2.03,0,0,0,1.222-.352,5.022,5.022,0,0,0,1.081-1.3l1.67.932a6.719,6.719,0,0,1-.818,1.13,4.386,4.386,0,0,1-.923.773,3.726,3.726,0,0,1-1.063.444,5.214,5.214,0,0,1-1.239.14,4.032,4.032,0,0,1-3.077-1.23,4.617,4.617,0,0,1-1.16-3.287,4.74,4.74,0,0,1,1.125-3.287,3.878,3.878,0,0,1,3.006-1.24,3.845,3.845,0,0,1,2.988,1.2,4.736,4.736,0,0,1,1.09,3.314Zm-2.03-1.618a1.9,1.9,0,0,0-2-1.582,2.086,2.086,0,0,0-.677.11,1.969,1.969,0,0,0-.576.316,2.025,2.025,0,0,0-.443.5,2.345,2.345,0,0,0-.282.659Z"/><path d="M-7741.737,654.228l-1.635.87c-.257-.528-.577-.791-.958-.791a.656.656,0,0,0-.465.18.6.6,0,0,0-.194.461q0,.492,1.143.976a6.793,6.793,0,0,1,2.118,1.248,2.137,2.137,0,0,1,.545,1.538,2.694,2.694,0,0,1-.914,2.074,3.108,3.108,0,0,1-2.145.791,3.112,3.112,0,0,1-3.05-2.1l1.688-.783a3.659,3.659,0,0,0,.536.783,1.224,1.224,0,0,0,.861.334q1,0,1-.914,0-.528-.773-.985c-.2-.1-.4-.2-.6-.29s-.4-.19-.606-.29a3.7,3.7,0,0,1-1.213-.844,2.077,2.077,0,0,1-.448-1.38,2.443,2.443,0,0,1,.764-1.845,2.683,2.683,0,0,1,1.9-.73A2.591,2.591,0,0,1-7741.737,654.228Z"/><path d="M-7731.612,657.515h-6.135a2.6,2.6,0,0,0,.686,1.678,2.087,2.087,0,0,0,1.556.616,2.023,2.023,0,0,0,1.221-.352,4.965,4.965,0,0,0,1.081-1.3l1.67.932a6.69,6.69,0,0,1-.817,1.13,4.384,4.384,0,0,1-.923.773,3.75,3.75,0,0,1-1.063.444,5.218,5.218,0,0,1-1.24.14,4.031,4.031,0,0,1-3.076-1.23,4.617,4.617,0,0,1-1.16-3.287,4.74,4.74,0,0,1,1.125-3.287,3.876,3.876,0,0,1,3.006-1.24,3.845,3.845,0,0,1,2.988,1.2,4.736,4.736,0,0,1,1.09,3.314Zm-2.03-1.618a1.9,1.9,0,0,0-2-1.582,2.085,2.085,0,0,0-.677.11,1.977,1.977,0,0,0-.576.316,2.057,2.057,0,0,0-.444.5,2.344,2.344,0,0,0-.281.659Z"/><path d="M-7729.45,652.769h1.987v.791a3.238,3.238,0,0,1,2.337-1.029,2.954,2.954,0,0,1,2.33.941,3.852,3.852,0,0,1,.72,2.61v5.247h-1.986v-4.781a3.129,3.129,0,0,0-.352-1.749,1.417,1.417,0,0,0-1.248-.492,1.524,1.524,0,0,0-1.4.65,4.472,4.472,0,0,0-.4,2.241v4.131h-1.987Z"/><path d="M-7712.918,653.138v2.628a4.821,4.821,0,0,0-1.212-1.134,2.366,2.366,0,0,0-1.24-.317,2.441,2.441,0,0,0-1.854.783,2.743,2.743,0,0,0-.738,1.96,2.806,2.806,0,0,0,.711,1.977,2.4,2.4,0,0,0,1.837.774,2.511,2.511,0,0,0,1.257-.308,4.965,4.965,0,0,0,1.239-1.16v2.61a5.19,5.19,0,0,1-2.408.624,4.61,4.61,0,0,1-3.322-1.283,4.281,4.281,0,0,1-1.336-3.208,4.337,4.337,0,0,1,1.354-3.234,4.577,4.577,0,0,1,3.322-1.319A4.953,4.953,0,0,1-7712.918,653.138Z"/><path d="M-7703.206,657.515h-6.134a2.592,2.592,0,0,0,.685,1.678,2.087,2.087,0,0,0,1.556.616,2.03,2.03,0,0,0,1.222-.352,5.022,5.022,0,0,0,1.081-1.3l1.669.932a6.663,6.663,0,0,1-.817,1.13,4.386,4.386,0,0,1-.923.773,3.726,3.726,0,0,1-1.063.444,5.214,5.214,0,0,1-1.239.14,4.033,4.033,0,0,1-3.077-1.23,4.617,4.617,0,0,1-1.16-3.287,4.74,4.74,0,0,1,1.125-3.287,3.876,3.876,0,0,1,3.006-1.24,3.845,3.845,0,0,1,2.988,1.2,4.736,4.736,0,0,1,1.09,3.314Zm-2.03-1.618a1.9,1.9,0,0,0-2-1.582,2.088,2.088,0,0,0-.677.11,1.969,1.969,0,0,0-.576.316,2.014,2.014,0,0,0-.443.5,2.332,2.332,0,0,0-.282.659Z"/></g></svg>