<svg xmlns="http://www.w3.org/2000/svg" viewBox="0 0 1800 1134.1"><defs><style>.cls-1{fill:#fff;}.cls-2{fill:#eaeaea;}.cls-3{fill:#7f7f7f;}.cls-10,.cls-4{font-size:33px;font-family:Futura-Medium, Futura;font-weight:500;}.cls-5{letter-spacing:0em;}.cls-6{letter-spacing:0.03em;}.cls-7{letter-spacing:-0.03em;}.cls-8{letter-spacing:0.02em;}.cls-9{letter-spacing:0.01em;}.cls-10{letter-spacing:-0.06em;}.cls-11{letter-spacing:-0.02em;}.cls-12{letter-spacing:-0.03em;}.cls-13{letter-spacing:-0.02em;}.cls-14{letter-spacing:0.02em;}.cls-15{letter-spacing:0em;}.cls-16{fill:#f2275c;}</style></defs><g id="레이어_2" data-name="레이어 2"><g id="레이어_1-2" data-name="레이어 1"><rect class="cls-1" x="0.5" y="0.5" width="1799" height="1133"/><path class="cls-2" d="M1799,1V1133H1V1H1799m1-1H0V1134H1800V0Z"/><rect y="967.31" width="1800" height="9.38"/><path d="M364.69,1134.1h-9.38V554.63c0-219.08,178.24-397.32,397.31-397.32H1800v9.38H752.62c-213.9,0-387.93,174-387.93,387.94Z"/><rect x="1075.31" y="769.5" width="9.37" height="202.5"/><rect x="720" y="663.56" width="1080" height="9.38"/><path d="M1080,774.19A106.06,106.06,0,0,1,974.06,668.25V162h9.38V668.25a96.56,96.56,0,0,0,193.12,0h9.38A106.07,106.07,0,0,1,1080,774.19Z"/><polygon points="1444.69 668.25 1435.31 668.25 1435.31 166.69 1185.94 166.69 1185.94 668.25 1176.56 668.25 1176.56 157.31 1444.69 157.31 1444.69 668.25"/><rect x="1075.31" y="162" width="9.38" height="506.25"/><rect x="715.31" y="162" width="9.37" height="810"/><path class="cls-3" d="M1080,724.81a13.26,13.26,0,1,0,13.26,13.26A13.26,13.26,0,0,0,1080,724.81Zm0,17.41a4.15,4.15,0,1,1,4.15-4.15A4.15,4.15,0,0,1,1080,742.22Z"/><path class="cls-3" d="M1307.07,537.8a13.27,13.27,0,1,0,13.27,13.27A13.27,13.27,0,0,0,1307.07,537.8Zm0,17.41a4.15,4.15,0,1,1,4.15-4.14A4.14,4.14,0,0,1,1307.07,555.21Z"/><path class="cls-3" d="M900,822.23a13.26,13.26,0,1,0,13.26,13.26A13.26,13.26,0,0,0,900,822.23Zm0,17.41a4.15,4.15,0,1,1,4.15-4.15A4.15,4.15,0,0,1,900,839.64Z"/><text class="cls-4" transform="translate(777.97 886.55)"><tspan class="cls-5">L</tspan><tspan x="14.7" y="0">u</tspan><tspan class="cls-6" x="32.68" y="0">c</tspan><tspan x="49.26" y="0">ky Hana APT</tspan></text><text class="cls-4" transform="translate(1099.85 809.42)"><tspan class="cls-7">P</tspan><tspan x="16.94" y="0">a</tspan><tspan class="cls-8" x="36.72" y="0">r</tspan><tspan x="49.56" y="0">is Bagu</tspan><tspan class="cls-9" x="158.39" y="0">e</tspan><tspan x="176.94" y="0">t</tspan><tspan class="cls-9" x="185.96" y="0">t</tspan><tspan x="195.28" y="0">e</tspan></text><text class="cls-10" transform="translate(1226.67 441.34)">K<tspan class="cls-11" x="20.03" y="0">eum-Sung</tspan><tspan class="cls-12"><tspan x="0" y="39.6">Elemen</tspan><tspan class="cls-13" x="102.64" y="39.6">t</tspan><tspan x="111.13" y="39.6">a</tspan><tspan class="cls-14" x="130.09" y="39.6">r</tspan><tspan x="143.06" y="39.6">y</tspan><tspan x="0" y="79.2">S</tspan><tspan class="cls-15" x="18.41" y="79.2">c</tspan><tspan x="34.17" y="79.2">hool</tspan></tspan></text><path class="cls-16" d="M1119.6,505.25c.46.06.91.1,1.37.18a16.13,16.13,0,0,1,13.13,20.78,40.85,40.85,0,0,1-3.91,8.78,91.81,91.81,0,0,1-10.14,14,1.51,1.51,0,0,1-2.64,0,86.6,86.6,0,0,1-11.26-16.09,30,30,0,0,1-3.19-8.41,16.14,16.14,0,0,1,14-19.17l.9-.1Zm-.93,24.24a8.12,8.12,0,1,0-8-8.24A8.12,8.12,0,0,0,1118.67,529.49Z"/><circle class="cls-1" cx="1118.73" cy="582.65" r="31.59"/><path d="M1087.13,582.69a31.6,31.6,0,1,1,31.52,31.55A31.66,31.66,0,0,1,1087.13,582.69Zm31.59,29.12a29.16,29.16,0,1,0-29.14-29.26A29.21,29.21,0,0,0,1118.72,611.81Z"/><path d="M1126.15,582.19l-9.75,3.63,10.38-25.51,3.11,1.26L1122.4,580l9.69-3.6c-3.49,8.7-6.9,17.25-10.35,25.87l-3.12-1.24C1121.12,594.78,1123.59,588.58,1126.15,582.19Z"/><path d="M1102.83,601.25l12.82-31.51L1109.5,572l-1.18-3.13,13.33-5c-4.29,10.55-8.52,20.94-12.81,31.5l6.14-2.28,1.18,3.14Z"/></g></g></svg>