<svg xmlns="http://www.w3.org/2000/svg" viewBox="0 0 960 648"><defs><style>.cls-1{fill:#fff;}.cls-2{fill:#eaeaea;}.cls-3{fill:none;stroke:#000;stroke-miterlimit:10;stroke-width:5px;}.cls-4{fill:#7f7f7f;}.cls-5{font-size:14px;font-family:Futura-Medium, Futura;font-weight:500;}.cls-6{letter-spacing:0em;}.cls-7{letter-spacing:0.03em;}.cls-8{letter-spacing:-0.03em;}.cls-9{letter-spacing:0.02em;}.cls-10{letter-spacing:0.01em;}.cls-11{letter-spacing:-0.03em;}.cls-12{letter-spacing:0.04em;}.cls-13{fill:#f2275c;}</style></defs><g id="레이어_2" data-name="레이어 2"><g id="레이어_1-2" data-name="레이어 1"><rect class="cls-1" x="0.5" y="0.5" width="959" height="647"/><path class="cls-2" d="M959,1V647H1V1H959m1-1H0V648H960V0Z"/><line class="cls-3" y1="540" x2="960" y2="540"/><path class="cls-3" d="M192,648V317.4C192,201.75,285.75,108,401.4,108H960"/><line class="cls-3" x1="576" y1="540" x2="576" y2="432"/><line class="cls-3" x1="960" y1="378" x2="384" y2="378"/><path class="cls-3" d="M630,378h0a54,54,0,0,1-54,54h0a54,54,0,0,1-54-54h0V108"/><polyline class="cls-3" points="630 378 630 108 768 108 768 324 768 378"/><line class="cls-3" x1="576" y1="378" x2="576" y2="108"/><line class="cls-3" x1="384" y1="108" x2="384" y2="540"/><path class="cls-4" d="M576,408.16a7.08,7.08,0,1,0,7.07,7.08A7.07,7.07,0,0,0,576,408.16Zm0,9.29a2.21,2.21,0,1,1,2.21-2.21A2.21,2.21,0,0,1,576,417.45Z"/><path class="cls-4" d="M697.11,308.43a7.08,7.08,0,1,0,7.07,7.07A7.08,7.08,0,0,0,697.11,308.43Zm0,9.28a2.21,2.21,0,1,1,2.21-2.21A2.21,2.21,0,0,1,697.11,317.71Z"/><path class="cls-4" d="M480,460.12a7.08,7.08,0,1,0,7.07,7.08A7.07,7.07,0,0,0,480,460.12Zm0,9.29a2.22,2.22,0,1,1,2.21-2.21A2.21,2.21,0,0,1,480,469.41Z"/><text class="cls-5" transform="translate(426.28 494.43)"><tspan class="cls-6">L</tspan><tspan x="6.23" y="0">u</tspan><tspan class="cls-7" x="13.86" y="0">c</tspan><tspan x="20.9" y="0">ky Hana APT</tspan></text><text class="cls-5" transform="translate(588.18 448.49)"><tspan class="cls-8">P</tspan><tspan x="7.18" y="0">a</tspan><tspan class="cls-9" x="15.58" y="0">r</tspan><tspan x="21.03" y="0">is Bagu</tspan><tspan class="cls-10" x="67.2" y="0">e</tspan><tspan x="75.07" y="0">t</tspan><tspan class="cls-10" x="78.89" y="0">t</tspan><tspan x="82.84" y="0">e</tspan></text><text class="cls-5" transform="translate(637.62 270)"><tspan class="cls-11">K</tspan><tspan x="8.85" y="0">eum-Sung</tspan><tspan x="0" y="16.8">Elemen</tspan><tspan class="cls-10" x="45.64" y="16.8">t</tspan><tspan x="49.59" y="16.8">a</tspan><tspan class="cls-12" x="57.99" y="16.8">r</tspan><tspan x="63.84" y="16.8">y S</tspan><tspan class="cls-7" x="83.93" y="16.8">c</tspan><tspan x="90.97" y="16.8">hool</tspan></text><path class="cls-13" d="M597.12,291.07c.24,0,.49.05.73.09a8.45,8.45,0,0,1,6.73,5.19,8.36,8.36,0,0,1,.27,5.89,21.63,21.63,0,0,1-2.08,4.69,49.08,49.08,0,0,1-5.41,7.48.81.81,0,0,1-1.41,0,46.37,46.37,0,0,1-6-8.58,16.2,16.2,0,0,1-1.71-4.49,8.62,8.62,0,0,1,7.47-10.22l.48-.05ZM596.63,304a4.33,4.33,0,1,0-4.29-4.4A4.34,4.34,0,0,0,596.63,304Z"/><circle class="cls-1" cx="596.66" cy="332.35" r="16.85"/><path d="M579.8,332.37a16.86,16.86,0,1,1,16.81,16.82A16.9,16.9,0,0,1,579.8,332.37Zm16.85,15.53a15.55,15.55,0,1,0-15.54-15.61A15.57,15.57,0,0,0,596.65,347.9Z"/><path d="M600.61,332.1,595.42,334,601,320.43l1.66.67-4,9.83,5.17-1.92-5.52,13.8-1.66-.67Z"/><path d="M588.18,342.26l6.83-16.8-3.28,1.22L591.1,325l7.11-2.66-6.83,16.8,3.28-1.21.63,1.67Z"/></g></g></svg>