<svg xmlns="http://www.w3.org/2000/svg" width="195.965" height="55.87" viewBox="0 0 195.965 55.87"><defs><style>.a{fill:#b5b5b6;}</style></defs><g transform="translate(-572.035 -2780.031)"><path class="a" d="M572.035,2829s40.434-6.9,98-6.9S768,2829,768,2829a698.762,698.762,0,0,1-195.965,0Z"/><path class="a" d="M602.473,2798.226v16.091h-9.025v-34.226c.191-.015.4-.044.6-.044,2.583,0,5.165.011,7.747-.013.534-.006.686.15.684.684-.019,4.944-.011,9.888-.011,14.832v.667l.146.058c.124-.132.251-.261.372-.4q6.894-7.693,13.779-15.394a1.2,1.2,0,0,1,1-.449c3.029.016,6.058.009,9.087.009h.691l-15.4,17.166,12.411,13.83c.325-.767.612-1.436.893-2.108q5.9-14.114,11.793-28.233a.931.931,0,0,1,1.027-.668q4.717.039,9.436,0a.775.775,0,0,1,.852.562q6.929,16.612,13.883,33.213c.065.157.113.321.2.563h-.676q-9.99,0-19.981.013a.835.835,0,0,1-.927-.619c-.732-1.833-1.513-3.647-2.274-5.468-.08-.193-.148-.391-.265-.7h12.087c-2.565-6.428-5.078-12.726-7.652-19.175-.144.3-.237.474-.31.655q-5,12.35-9.982,24.706a.8.8,0,0,1-.882.6q-7.019-.027-14.038,0a1.141,1.141,0,0,1-.947-.427q-6.8-7.618-13.625-15.22c-.176-.2-.356-.388-.534-.582Z"/><path class="a" d="M710.406,2780.085v7.044h-.678q-7.776,0-15.552.007a6.962,6.962,0,0,0-1.613.163c-1.654.4-2.387,1.577-2.275,3.537a2.885,2.885,0,0,0,2.627,2.733,10.668,10.668,0,0,0,1.449.106c2.776.015,5.556-.07,8.328.045a11.562,11.562,0,0,1,8.033,3.318,9.705,9.705,0,0,1,2.69,8.1c-.434,4.886-4.02,8.092-8.839,8.97a15.949,15.949,0,0,1-2.775.25c-6.271.021-12.543.011-18.814.011h-.623V2807.3h.746q8.679,0,17.358-.008a7.355,7.355,0,0,0,1.782-.2,2.871,2.871,0,0,0,2.249-3.161,2.91,2.91,0,0,0-2.545-3.057,8.379,8.379,0,0,0-1.387-.119c-2.8-.013-5.594.05-8.388-.028a12.125,12.125,0,0,1-7.783-2.794,9.484,9.484,0,0,1-3.319-7.911c.174-5.715,4.251-8.849,8.786-9.688a18.39,18.39,0,0,1,3.239-.276c5.514-.027,11.028-.013,16.542-.011C709.889,2780.046,710.135,2780.071,710.406,2780.085Z"/><path class="a" d="M746.554,2787.129h-.729c-3.358,0-6.717.013-10.075-.012-.564,0-.711.158-.71.715q.027,12.822.012,25.645v.849h-9.044v-27.17H714.491v-7.075c.252-.013.478-.035.7-.035q15.316,0,30.633,0c.756,0,.757,0,.757.763q0,2.82,0,5.641C746.585,2786.656,746.567,2786.864,746.554,2787.129Z"/><path class="a" d="M674.525,2780.081v34.254H665.5c-.019-.215-.055-.436-.055-.658q0-16.455-.013-32.911c0-.537.114-.742.7-.735,2.581.031,5.163.013,7.745.015C674.083,2780.046,674.291,2780.068,674.525,2780.081Z"/></g></svg>