<?xml version="1.0" standalone="no"?>
<!DOCTYPE svg PUBLIC "-//W3C//DTD SVG 20010904//EN"
 "http://www.w3.org/TR/2001/REC-SVG-20010904/DTD/svg10.dtd">
<svg version="1.0" xmlns="http://www.w3.org/2000/svg"
 width="2400.000000pt" height="2400.000000pt" viewBox="0 0 2400.000000 2400.000000"
 preserveAspectRatio="xMidYMid meet">
<metadata>
Created by potrace 1.11, written by Peter Selinger 2001-2013
</metadata>
<g transform="translate(0.000000,2400.000000) scale(0.100000,-0.100000)"
fill="#000000" stroke="none">
<path d="M11619 20996 c-2 -2 -60 -6 -129 -10 -69 -3 -150 -8 -180 -11 -30 -2
-89 -7 -130 -10 -41 -3 -86 -7 -100 -9 -14 -3 -52 -7 -85 -11 -33 -3 -71 -8
-85 -10 -14 -2 -50 -6 -81 -10 -31 -3 -66 -7 -76 -9 -11 -3 -44 -7 -73 -11
-29 -4 -62 -9 -74 -11 -12 -2 -50 -9 -86 -14 -36 -6 -110 -19 -165 -30 -55
-10 -114 -21 -132 -24 -62 -11 -310 -69 -423 -98 -63 -16 -122 -31 -130 -33
-283 -68 -940 -296 -1237 -431 -32 -15 -71 -32 -88 -39 -138 -61 -509 -244
-623 -309 -35 -20 -66 -36 -67 -36 -2 0 -59 -32 -127 -71 -604 -351 -1112
-723 -1628 -1194 -71 -65 -438 -431 -515 -515 -51 -55 -159 -176 -227 -255
-37 -44 -185 -223 -213 -260 -16 -21 -39 -50 -51 -64 -156 -193 -455 -627
-604 -877 -355 -593 -617 -1163 -845 -1839 -50 -148 -148 -491 -181 -632 -9
-38 -18 -75 -20 -83 -2 -8 -10 -42 -18 -75 -23 -94 -93 -451 -106 -540 -7 -44
-14 -87 -15 -96 -2 -9 -6 -40 -10 -69 -4 -29 -8 -60 -10 -69 -2 -9 -6 -44 -10
-76 -4 -33 -9 -68 -11 -77 -1 -9 -6 -48 -9 -85 -4 -37 -9 -81 -11 -97 -1 -17
-6 -68 -10 -115 -3 -47 -8 -97 -10 -111 -27 -210 -26 -1111 1 -1385 3 -22 7
-71 10 -110 6 -74 13 -140 20 -190 2 -16 7 -57 10 -90 4 -33 8 -71 11 -85 2
-14 11 -75 19 -137 9 -62 18 -123 21 -135 2 -13 9 -51 14 -85 6 -34 19 -106
30 -160 10 -54 21 -111 24 -128 9 -50 54 -244 81 -350 14 -55 28 -108 30 -118
36 -161 247 -815 305 -942 5 -11 28 -67 51 -125 91 -232 288 -653 416 -889 73
-135 87 -159 161 -286 310 -532 697 -1058 1130 -1535 170 -188 523 -533 702
-688 47 -40 95 -82 107 -93 26 -24 194 -162 248 -204 21 -16 61 -48 89 -70 58
-47 202 -153 326 -242 168 -120 502 -333 700 -445 25 -14 63 -36 85 -49 203
-116 585 -303 850 -417 485 -208 1017 -382 1510 -493 50 -11 99 -23 110 -25
11 -3 43 -9 70 -14 28 -6 59 -12 70 -14 45 -10 234 -45 295 -55 36 -6 79 -13
95 -16 17 -3 50 -8 75 -11 25 -3 56 -7 70 -9 14 -3 50 -7 80 -10 30 -4 62 -8
70 -10 8 -2 50 -7 94 -11 43 -3 85 -7 95 -9 9 -2 50 -6 91 -9 41 -4 95 -9 120
-11 284 -28 1075 -28 1385 0 22 2 76 6 121 10 45 3 90 7 100 9 10 2 51 7 89
11 39 4 77 8 85 10 8 1 46 6 85 10 38 4 72 8 75 10 3 1 28 6 55 9 164 22 514
86 705 131 512 118 1144 326 1565 515 28 12 64 28 80 35 401 175 921 462 1317
726 529 354 943 693 1393 1144 279 279 495 519 687 765 348 445 606 834 858
1295 87 158 260 507 304 612 14 35 37 86 50 116 110 239 285 726 380 1052 35
122 102 374 110 417 2 13 13 61 25 108 38 157 85 407 116 610 2 14 6 43 10 65
3 22 7 54 9 70 2 17 7 50 10 75 11 81 15 114 21 170 3 30 10 93 15 140 10 85
13 122 27 360 10 155 10 890 0 1025 -4 55 -9 132 -12 170 -3 39 -7 93 -10 120
-3 28 -7 77 -10 110 -3 33 -10 96 -16 140 -6 44 -13 94 -15 110 -7 58 -16 130
-19 145 -1 8 -6 40 -10 70 -4 30 -9 64 -11 75 -3 11 -14 72 -25 135 -27 156
-84 420 -120 560 -17 63 -32 124 -34 135 -9 42 -98 346 -137 465 -93 286 -216
607 -349 908 -88 198 -301 621 -366 724 -13 21 -23 40 -23 43 0 13 -197 332
-325 525 -229 346 -457 646 -726 956 -264 303 -646 682 -919 912 -14 11 -36
31 -50 43 -14 11 -45 38 -70 58 -25 20 -54 44 -65 54 -40 36 -313 245 -440
337 -779 563 -1713 1022 -2643 1301 -112 34 -302 87 -372 104 -53 13 -231 55
-260 61 -19 4 -39 9 -45 10 -5 2 -116 23 -245 48 -247 46 -295 54 -434 72 -27
3 -56 7 -65 9 -9 1 -45 6 -81 10 -36 4 -72 9 -81 10 -8 2 -53 6 -100 10 -46 4
-86 8 -89 10 -3 1 -59 6 -125 10 -66 4 -133 10 -150 12 -38 5 -921 13 -926 9z
m879 -690 c87 -8 204 -17 247 -21 54 -4 174 -16 205 -20 14 -2 43 -6 65 -9 22
-3 65 -8 95 -12 84 -10 151 -20 195 -28 11 -2 45 -7 75 -12 30 -4 57 -8 60 -9
3 -1 23 -5 45 -9 151 -29 451 -94 518 -111 9 -3 25 -7 35 -9 303 -72 726 -210
1062 -346 1114 -451 2096 -1120 2930 -1996 100 -105 233 -252 261 -289 13 -16
29 -34 35 -40 18 -15 233 -282 279 -345 21 -30 42 -57 45 -60 25 -20 440 -627
440 -643 0 -6 64 -113 78 -130 9 -12 17 -25 150 -267 63 -115 262 -513 262
-525 0 -2 13 -32 29 -67 90 -198 224 -546 305 -794 39 -122 122 -400 131 -444
2 -8 17 -69 34 -135 40 -160 109 -495 128 -620 2 -16 10 -68 18 -115 7 -47 17
-110 20 -140 4 -30 9 -62 10 -70 1 -8 6 -46 10 -85 4 -38 8 -81 10 -95 2 -14
6 -59 9 -100 4 -41 9 -95 11 -120 13 -132 19 -320 19 -630 0 -362 -5 -500 -29
-765 -15 -156 -15 -161 -36 -320 -12 -94 -12 -91 -39 -265 -12 -74 -35 -202
-52 -285 -16 -82 -32 -159 -34 -170 -25 -129 -132 -527 -194 -720 -286 -893
-702 -1702 -1269 -2465 -31 -41 -58 -77 -61 -80 -3 -3 -37 -45 -75 -95 -38
-49 -72 -92 -75 -95 -3 -3 -27 -32 -55 -65 -197 -238 -553 -613 -760 -800
-493 -446 -936 -771 -1495 -1097 -391 -229 -911 -469 -1350 -624 -52 -18 -114
-40 -136 -48 -51 -19 -333 -107 -355 -111 -9 -2 -47 -12 -85 -24 -77 -22 -380
-98 -425 -106 -16 -3 -57 -12 -92 -20 -34 -8 -80 -17 -102 -20 -22 -4 -47 -8
-55 -10 -8 -3 -33 -7 -55 -10 -22 -4 -47 -8 -55 -10 -8 -3 -33 -7 -55 -10 -22
-3 -51 -8 -65 -11 -14 -2 -41 -6 -60 -9 -19 -3 -45 -7 -57 -9 -12 -3 -53 -8
-90 -11 -37 -4 -70 -9 -73 -10 -3 -2 -37 -6 -75 -10 -39 -4 -81 -8 -95 -10
-23 -4 -118 -12 -230 -20 -348 -27 -1011 -27 -1260 -1 -19 2 -71 7 -115 10
-44 3 -91 8 -105 10 -14 3 -54 7 -90 11 -36 3 -74 8 -85 10 -11 2 -47 7 -80
11 -71 8 -88 10 -137 18 -21 3 -55 9 -75 12 -145 21 -542 102 -685 139 -10 3
-26 7 -35 9 -629 150 -1420 465 -2023 807 -427 241 -898 563 -1210 826 -409
344 -754 682 -1040 1019 -107 126 -186 223 -248 304 -40 52 -79 102 -85 110
-81 100 -328 462 -444 650 -68 110 -213 362 -245 425 -8 17 -51 100 -95 185
-145 285 -258 543 -376 860 -89 240 -222 657 -242 761 -2 9 -8 34 -14 55 -15
52 -69 286 -76 327 -3 18 -8 40 -11 49 -3 9 -7 27 -9 40 -3 13 -7 34 -10 48
-12 54 -31 164 -40 223 -2 15 -13 87 -24 160 -20 132 -25 168 -36 262 -3 28
-7 66 -10 86 -2 20 -7 71 -11 115 -3 43 -8 95 -10 114 -25 295 -25 1067 1
1265 2 17 6 68 9 115 3 47 8 94 10 106 2 11 7 53 11 93 3 40 8 80 10 89 1 9 6
42 10 72 24 191 44 308 121 695 2 11 22 94 45 185 155 629 364 1194 652 1760
133 263 131 260 270 495 219 371 461 715 746 1060 64 77 118 142 121 145 3 3
43 48 90 100 563 632 1265 1206 2010 1643 643 378 1398 690 2110 873 8 2 33 8
55 14 63 16 386 88 425 95 19 3 82 14 140 25 58 11 119 21 135 24 17 2 62 9
100 15 39 6 108 16 155 21 47 6 99 13 115 15 37 5 149 16 305 30 30 2 111 7
180 11 69 3 126 7 128 9 5 4 784 -4 840 -9z"/>
<path d="M14233 18207 c-105 -262 -426 -1050 -448 -1102 -7 -16 -27 -66 -45
-110 -59 -148 -100 -250 -109 -270 -5 -11 -23 -56 -41 -100 -17 -44 -37 -93
-45 -110 -7 -16 -27 -66 -44 -110 -18 -44 -36 -89 -41 -100 -5 -11 -39 -94
-76 -185 -36 -91 -72 -178 -79 -195 -7 -16 -26 -64 -43 -105 -49 -124 -223
-553 -237 -585 -11 -26 -102 -248 -167 -410 -11 -27 -24 -59 -29 -70 -12 -29
-30 -74 -125 -310 -46 -115 -91 -223 -99 -240 -7 -16 -41 -100 -75 -185 -34
-85 -68 -168 -75 -185 -8 -16 -66 -160 -131 -320 -64 -159 -168 -416 -231
-570 -63 -154 -143 -352 -179 -440 -36 -88 -92 -225 -124 -305 -338 -831 -440
-1084 -437 -1086 3 -3 545 194 592 216 11 5 90 34 175 65 85 31 164 60 175 65
24 11 689 259 725 270 14 5 48 17 75 28 28 10 149 56 270 101 121 46 339 127
484 182 145 55 266 97 268 95 2 -2 -32 -93 -76 -202 -99 -248 -1178 -2946
-1273 -3184 -38 -96 -87 -220 -109 -275 -22 -55 -44 -109 -49 -120 -5 -11 -59
-146 -121 -300 -106 -268 -386 -967 -472 -1182 -22 -56 -39 -104 -36 -107 2
-2 164 -68 359 -146 195 -78 369 -148 385 -155 55 -24 125 -48 129 -44 2 2
126 310 275 684 150 374 276 689 281 700 7 15 2286 5714 2371 5927 l18 47 -37
-13 c-20 -8 -152 -57 -292 -109 -140 -52 -390 -145 -555 -206 -165 -62 -309
-116 -320 -121 -11 -5 -81 -31 -155 -58 -151 -56 -665 -248 -1105 -412 -159
-60 -291 -107 -293 -105 -2 2 24 69 57 149 34 80 61 148 61 150 0 2 8 21 17
42 9 22 18 44 19 49 2 6 33 82 69 170 37 88 69 169 72 180 3 11 9 25 13 30 4
6 29 64 55 130 26 66 53 134 61 150 7 17 22 55 34 85 11 30 25 64 30 75 5 11
41 99 80 195 39 96 93 229 120 295 27 66 83 206 125 310 42 105 83 204 90 220
7 17 51 125 98 240 172 425 288 711 297 730 5 11 25 61 45 110 20 50 40 99 45
110 5 11 39 94 75 185 36 91 70 174 75 185 5 11 19 45 31 75 11 30 27 69 34
85 7 17 41 100 75 185 115 284 172 425 185 455 34 78 207 508 206 512 0 2 15
36 33 77 l34 73 -92 38 c-355 147 -773 315 -781 315 -5 0 -38 -69 -72 -153z"/>
<path d="M12305 17145 c-269 -102 -519 -195 -555 -208 -85 -32 -571 -213 -635
-237 -27 -11 -88 -33 -135 -51 -47 -17 -119 -44 -160 -60 -75 -28 -232 -87
-935 -349 -209 -78 -483 -180 -610 -227 -126 -47 -232 -87 -233 -88 -5 -4 317
-868 327 -878 4 -4 118 33 252 84 134 50 393 146 574 214 182 68 464 173 629
235 164 61 300 110 301 108 2 -2 -16 -50 -40 -108 -23 -58 -91 -224 -150 -370
-59 -146 -113 -278 -120 -295 -7 -16 -23 -55 -35 -85 -12 -30 -26 -64 -31 -75
-4 -11 -29 -72 -54 -135 -66 -164 -180 -444 -208 -510 -8 -19 -42 -105 -77
-190 -34 -85 -68 -168 -75 -185 -7 -16 -32 -77 -55 -135 -23 -58 -48 -119 -56
-137 -8 -17 -33 -78 -55 -135 -22 -57 -47 -116 -54 -133 -8 -16 -57 -138 -111
-270 -53 -132 -169 -420 -259 -640 -183 -449 -291 -716 -372 -915 -30 -74 -61
-148 -68 -165 -7 -16 -66 -160 -130 -320 -65 -159 -126 -309 -136 -332 -11
-23 -19 -47 -19 -53 0 -7 -7 -24 -15 -38 -8 -15 -33 -74 -56 -132 -22 -58 -47
-118 -54 -135 -7 -16 -51 -124 -98 -240 -101 -248 -186 -459 -232 -570 -39
-94 -179 -441 -259 -640 -31 -77 -63 -153 -70 -170 -8 -16 -36 -86 -64 -155
-103 -253 -235 -580 -304 -750 -38 -96 -76 -188 -83 -205 -8 -16 -44 -104 -80
-195 -37 -91 -103 -252 -146 -359 -44 -107 -79 -196 -79 -199 0 -2 8 -1 18 3
9 4 46 18 82 31 36 13 88 32 115 42 49 18 620 233 980 368 99 37 198 73 220
81 41 14 268 99 295 110 8 3 20 7 25 9 22 6 793 296 850 319 17 7 41 16 55 20
14 3 34 10 45 15 11 5 65 26 120 45 55 20 109 40 120 45 31 14 209 80 216 80
4 0 24 8 45 17 22 9 44 18 49 19 6 2 39 14 75 27 36 14 121 46 190 72 279 105
275 103 272 122 -1 10 -9 34 -17 53 -8 19 -62 163 -120 320 -58 157 -112 301
-119 320 -8 19 -26 67 -41 106 l-26 71 -242 -89 c-133 -49 -251 -94 -262 -99
-11 -5 -45 -18 -75 -28 -30 -11 -170 -63 -310 -116 -140 -53 -259 -97 -265
-99 -5 -2 -17 -6 -25 -10 -8 -3 -51 -19 -95 -35 -98 -35 -339 -125 -420 -156
-33 -13 -61 -22 -63 -20 -2 2 3 18 11 37 8 18 38 92 67 163 28 72 57 144 65
160 7 17 30 73 50 125 21 52 45 113 55 135 10 22 37 87 60 145 23 58 48 119
55 135 7 17 41 100 75 185 183 455 183 454 203 500 8 19 31 76 52 125 20 50
43 104 51 122 7 17 14 34 14 38 0 4 6 21 14 38 8 18 33 79 56 137 23 58 48
119 55 135 14 32 212 517 320 785 37 91 105 260 152 375 46 116 91 224 98 240
7 17 40 100 75 185 34 85 73 179 86 208 13 29 24 55 24 58 0 3 6 20 14 37 8
18 51 122 95 232 44 110 132 328 196 485 64 157 168 413 232 570 63 157 146
359 183 450 37 91 106 262 154 380 47 118 93 229 100 245 8 17 60 145 116 285
57 140 109 269 116 285 7 17 63 154 124 305 61 151 117 289 125 305 7 17 36
89 65 160 66 166 199 494 210 520 5 11 20 47 34 80 13 33 59 146 101 250 79
193 119 292 135 333 7 16 6 22 -3 21 -6 0 -232 -83 -502 -184z"/>
</g>
</svg>
