<svg xmlns="http://www.w3.org/2000/svg" width="30.975" height="31.023" viewBox="0 0 30.975 31.023"><defs><style>.a{fill:#666;}</style></defs><g transform="translate(-1505.374 -3077.579)"><path class="a" d="M1516.212,3077.579h9.276l.539.05a32.6,32.6,0,0,1,3.491.336,7.833,7.833,0,0,1,6.181,5.286,12.8,12.8,0,0,1,.637,4.384c.011,3.557.027,7.113-.01,10.669a18.74,18.74,0,0,1-.305,3.371,7.882,7.882,0,0,1-5.13,6.184,12.005,12.005,0,0,1-4.283.693c-3.272.033-6.546.063-9.819.045a20.7,20.7,0,0,1-4.82-.4,7.948,7.948,0,0,1-5.612-4.485,11.094,11.094,0,0,1-.928-4.688c-.036-3.354-.073-6.708-.046-10.062a30.58,30.58,0,0,1,.3-4.224,7.867,7.867,0,0,1,3.143-5.307,9.426,9.426,0,0,1,5.15-1.728C1514.722,3077.65,1515.467,3077.62,1516.212,3077.579Zm4.662,28.3v-.048c.818,0,1.638.025,2.455,0,1.765-.063,3.543-.041,5.29-.262a5.055,5.055,0,0,0,4.583-4.055,13.676,13.676,0,0,0,.333-2.97q.084-4.3.052-8.607a41.3,41.3,0,0,0-.235-4.5,5.145,5.145,0,0,0-4.344-4.688,17.906,17.906,0,0,0-3.25-.291q-4.334-.063-8.668-.016a31.3,31.3,0,0,0-4.1.261,5.091,5.091,0,0,0-4.463,4.219,17.429,17.429,0,0,0-.3,3.1q-.079,3.757-.045,7.517c.019,1.735.063,3.476.232,5.2a5.133,5.133,0,0,0,2.609,4.141,6.7,6.7,0,0,0,3.16.838C1516.41,3105.783,1518.642,3105.821,1520.874,3105.876Z"/><path class="a" d="M1512.9,3093.11a7.973,7.973,0,1,1,7.991,7.966A7.978,7.978,0,0,1,1512.9,3093.11Zm2.809-.011a5.166,5.166,0,1,0,5.161-5.163A5.151,5.151,0,0,0,1515.711,3093.1Z"/><path class="a" d="M1531.021,3084.8a1.857,1.857,0,1,1-1.883-1.841A1.851,1.851,0,0,1,1531.021,3084.8Z"/></g></svg>