<svg xmlns="http://www.w3.org/2000/svg" width="31.1" height="31.101" viewBox="0 0 31.1 31.101"><defs><style>.a{fill:#666;}</style></defs><path class="a" d="M1623.518,3077.579h-13.736a8.682,8.682,0,0,0-8.682,8.682V3100a8.682,8.682,0,0,0,8.682,8.682h13.736A8.682,8.682,0,0,0,1632.2,3100v-13.737A8.682,8.682,0,0,0,1623.518,3077.579Zm-13.709,9.781a.455.455,0,0,1,.5-.507h1.66a.458.458,0,0,1,.509.5c0,.491,0,.982,0,1.473a.452.452,0,0,1-.5.5c-.281,0-.562,0-.843,0s-.554,0-.83,0a.452.452,0,0,1-.5-.508Q1609.807,3088.089,1609.809,3087.36Zm2.674,11.5a.463.463,0,0,1-.52.52c-.548,0-1.1,0-1.646,0a.457.457,0,0,1-.508-.515q0-1.914,0-3.827v-3.8c0-.375.162-.536.538-.537.54,0,1.079,0,1.619,0a.456.456,0,0,1,.518.518Zm11.035.175a.533.533,0,0,1-.579.349c-.513-.011-1.026,0-1.539,0-.391,0-.556-.164-.556-.551,0-1.187.007-2.374-.008-3.56a11.118,11.118,0,0,0-.108-1.492,1.464,1.464,0,0,0-1.55-1.26,2.105,2.105,0,0,0-1.644.76,1.852,1.852,0,0,0-.439,1.072c-.051.675-.092,1.352-.107,2.029-.017.825,0,1.65,0,2.476a.462.462,0,0,1-.526.525h-1.633a.459.459,0,0,1-.515-.51q0-3.834,0-7.669a.448.448,0,0,1,.495-.5q.75,0,1.5,0a.449.449,0,0,1,.491.49c0,.188-.006.376.005.562a.64.64,0,0,0,.072.188.706.706,0,0,0,.173-.076c.327-.268.631-.568.978-.8a3.5,3.5,0,0,1,1.733-.57,4.241,4.241,0,0,1,1.827.239,2.684,2.684,0,0,1,1.824,2.2c.045.262.058.531.087.8.006.057.016.114.024.171Z" transform="translate(-1601.1 -3077.579)"/></svg>