<svg xmlns="http://www.w3.org/2000/svg" width="31.088" height="21.677" viewBox="0 0 31.088 21.677"><defs><style>.a{fill:#666;}</style></defs><path class="a" d="M1728,3091.671v2.794c-.022.31-.05.621-.065.932a31.363,31.363,0,0,1-.489,4.824,3.869,3.869,0,0,1-3.524,3.285c-1.415.161-2.838.306-4.261.35-2.852.089-5.706.143-8.559.138a79.789,79.789,0,0,1-10.028-.485,4.119,4.119,0,0,1-2.819-1.493,4.5,4.5,0,0,1-.914-2.469c-.165-1.68-.33-3.363-.394-5.049a41.372,41.372,0,0,1,.445-8.108,4.225,4.225,0,0,1,1.712-2.925,4.537,4.537,0,0,1,2.428-.766c2.3-.148,4.6-.33,6.908-.36,3.439-.047,6.881-.016,10.32.064,1.755.042,3.512.222,5.259.416a3.731,3.731,0,0,1,3.364,3.074c.244,1.214.348,2.459.484,3.693C1727.943,3090.277,1727.958,3090.976,1728,3091.671Zm-18.638-3.2v9.337l8.106-4.669Z" transform="translate(-1696.912 -3082.317)"/></svg>