<svg xmlns="http://www.w3.org/2000/svg" width="281.6" height="41.064" viewBox="0 0 281.6 41.064"><defs><style>.a{fill:#666;}</style></defs><g transform="translate(-1446.4 -3144.655)"><path class="a" d="M1470.812,3173.235a11.575,11.575,0,0,1,3.611-8.586,12.739,12.739,0,0,1,17.65.024,12.472,12.472,0,0,1-.024,17.53,12.342,12.342,0,0,1-8.921,3.516,11.836,11.836,0,0,1-8.777-3.588A12.061,12.061,0,0,1,1470.812,3173.235Zm5.5.095a7.855,7.855,0,0,0,1.866,5.525,7.251,7.251,0,0,0,10.092.024,8.746,8.746,0,0,0,0-10.858,7.159,7.159,0,0,0-10.044,0A7.485,7.485,0,0,0,1476.312,3173.33Z"/><path class="a" d="M1615.7,3165.431l-4.244,2a3.083,3.083,0,0,0-2.825-1.853,2.453,2.453,0,0,0-2,.716,1.815,1.815,0,0,0-.436,1.393c.05,1.061,1.033,1.779,3.106,2.656a18.554,18.554,0,0,1,5.764,3.4,5.814,5.814,0,0,1,1.482,4.185,7.333,7.333,0,0,1-2.487,5.644,8.464,8.464,0,0,1-5.835,2.153q-5.86,0-8.3-5.716l4.592-2.129a9.958,9.958,0,0,0,1.459,2.129,3.326,3.326,0,0,0,2.343.908q2.727,0,2.727-2.487,0-1.434-2.1-2.678-.813-.406-1.626-.79t-1.65-.789a10.072,10.072,0,0,1-3.3-2.3,5.65,5.65,0,0,1-1.22-3.754,6.646,6.646,0,0,1,2.08-5.023,7.224,7.224,0,0,1,5.554-1.985A7.075,7.075,0,0,1,1615.7,3165.431Z"/><path class="a" d="M1514.934,3165.431l-4.244,2a3.083,3.083,0,0,0-2.825-1.853,2.453,2.453,0,0,0-2,.716,1.815,1.815,0,0,0-.436,1.393c.05,1.061,1.033,1.779,3.106,2.656a18.554,18.554,0,0,1,5.764,3.4,5.815,5.815,0,0,1,1.483,4.185,7.334,7.334,0,0,1-2.488,5.644,8.464,8.464,0,0,1-5.835,2.153q-5.86,0-8.3-5.716l4.592-2.129a9.958,9.958,0,0,0,1.459,2.129,3.326,3.326,0,0,0,2.344.908q2.726,0,2.726-2.487,0-1.434-2.1-2.678-.813-.406-1.626-.79t-1.65-.789a10.072,10.072,0,0,1-3.3-2.3,5.65,5.65,0,0,1-1.22-3.754,6.644,6.644,0,0,1,2.081-5.023,7.22,7.22,0,0,1,5.553-1.985A7.075,7.075,0,0,1,1514.934,3165.431Z"/><path class="a" d="M1525.994,3144.655v40.394h-5.381v-40.394Z"/><path class="a" d="M1553.411,3174.67h-16.693a7.069,7.069,0,0,0,1.866,4.567,5.683,5.683,0,0,0,4.233,1.674,5.5,5.5,0,0,0,3.324-.956,13.619,13.619,0,0,0,2.942-3.54l4.544,2.535a18.111,18.111,0,0,1-2.225,3.074,11.809,11.809,0,0,1-2.511,2.1,10.058,10.058,0,0,1-2.894,1.208,14.079,14.079,0,0,1-3.372.383,10.96,10.96,0,0,1-8.37-3.349,12.556,12.556,0,0,1-3.157-8.944,12.907,12.907,0,0,1,3.061-8.945,11.666,11.666,0,0,1,16.311-.095q2.964,3.252,2.965,9.016Zm-5.524-4.4q-1.125-4.305-5.429-4.3a5.585,5.585,0,0,0-1.842.3,5.291,5.291,0,0,0-1.566.861,5.453,5.453,0,0,0-1.208,1.351,6.266,6.266,0,0,0-.765,1.794Z"/><path class="a" d="M1580.508,3174.67h-16.693a7.067,7.067,0,0,0,1.865,4.567,5.683,5.683,0,0,0,4.233,1.674,5.505,5.505,0,0,0,3.324-.956,13.6,13.6,0,0,0,2.942-3.54l4.544,2.535a18.116,18.116,0,0,1-2.224,3.074,11.861,11.861,0,0,1-2.511,2.1,10.084,10.084,0,0,1-2.894,1.208,14.092,14.092,0,0,1-3.372.383,10.964,10.964,0,0,1-8.371-3.349,12.56,12.56,0,0,1-3.157-8.944,12.9,12.9,0,0,1,3.062-8.945,11.665,11.665,0,0,1,16.31-.095q2.965,3.252,2.966,9.016Zm-5.525-4.4q-1.125-4.305-5.429-4.3a5.579,5.579,0,0,0-1.841.3,5.3,5.3,0,0,0-1.567.861,5.451,5.451,0,0,0-1.207,1.351,6.274,6.274,0,0,0-.766,1.794Z"/><path class="a" d="M1624,3185.049v-18.272h-4.185v-5.022H1624v-8.538h5.381v8.538h4.185v5.022h-4.185v18.272Z"/><path class="a" d="M1643.827,3161.755v13.369q0,5.788,4.568,5.787t4.568-5.787v-13.369h5.381v13.488a15.009,15.009,0,0,1-.694,4.831,8.119,8.119,0,0,1-2.32,3.277,11.306,11.306,0,0,1-13.847,0,8.252,8.252,0,0,1-2.368-3.277,13.331,13.331,0,0,1-.669-4.831v-13.488Z"/><path class="a" d="M1681.082,3144.655h5.405v40.394h-5.405v-2.44a10.038,10.038,0,0,1-7.2,3.11,10.248,10.248,0,0,1-7.94-3.492,12.984,12.984,0,0,1-3.133-8.9,12.551,12.551,0,0,1,3.133-8.705,10.06,10.06,0,0,1,15.138-.167Zm-12.77,28.675a8.111,8.111,0,0,0,1.793,5.453,5.875,5.875,0,0,0,4.64,2.128,6.175,6.175,0,0,0,4.831-2.056,8.855,8.855,0,0,0,0-10.81,6.09,6.09,0,0,0-4.783-2.081,5.949,5.949,0,0,0-4.64,2.1A7.756,7.756,0,0,0,1668.312,3173.33Z"/><path class="a" d="M1691.854,3152.069a3.51,3.51,0,0,1,3.492-3.467,3.392,3.392,0,0,1,2.487,1.028,3.313,3.313,0,0,1,1.028,2.463,3.389,3.389,0,0,1-1.028,2.487,3.309,3.309,0,0,1-2.463,1.029,3.511,3.511,0,0,1-3.516-3.54Zm6.194,9.686v23.294h-5.381v-23.294Z"/><path class="a" d="M1703.152,3173.235a11.575,11.575,0,0,1,3.611-8.586,12.739,12.739,0,0,1,17.65.024,12.472,12.472,0,0,1-.024,17.53,12.343,12.343,0,0,1-8.921,3.516,11.836,11.836,0,0,1-8.777-3.588A12.061,12.061,0,0,1,1703.152,3173.235Zm5.5.095a7.856,7.856,0,0,0,1.866,5.525,7.251,7.251,0,0,0,10.092.024,8.746,8.746,0,0,0,0-10.858,7.159,7.159,0,0,0-10.044,0A7.485,7.485,0,0,0,1708.652,3173.33Z"/><path class="a" d="M1467.478,3185.049H1446.4l12.88-18.271h-10.259v-5.022H1468.7l-12.867,18.224h11.647Z"/></g></svg>