<svg xmlns="http://www.w3.org/2000/svg" width="75.009" height="18.42" viewBox="0 0 75.009 18.42">
    <defs>
        <style>
            .cls-1{fill:#b5b5b6}
        </style>
    </defs>
    <g id="Group_521">
        <path id="Path_3878" d="M10074.126 9715.725h6.5c.419 0 .862-.031.893.574.033.727-.5.625-.954.654-2.632.174-2.632.178-2.63 2.852 0 1.592.044 3.182-.018 4.77-.033.877.306 1.24 1.152 1.188.721-.047 1.446-.072 2.161-.166 2.362-.314 2.725-.887 2.308-3.246-.142-.8-.666-.621-1.145-.654-.751-.047-1.566.184-2.115-.611-.321-.469-.357-.746.322-.762a2.148 2.148 0 0 0 .463-.01c.8-.207 2.185.525 2.318-.414.192-1.3.905-2.99-.77-4.053-.229-.145-.42-.35-.348-.627.08-.3.384-.268.633-.307 3-.453 3.291-.207 3.291 2.834v13.084a6.679 6.679 0 0 1-.047 1.229c-.177.99-.943 1.061-1.77 1.084-1.019.031-.844-.662-.847-1.258 0-1.539-.03-3.078.008-4.617.023-.811-.268-.979-1.006-.738a17.4 17.4 0 0 1-4.516 1.055c-1.922.1-2.668-.594-2.686-2.475-.016-1.693.036-3.387-.016-5.08-.044-1.451.628-3.146-1.608-3.957z" class="cls-1" transform="translate(-10032.066 -9714.735)"/>
        <path id="Path_3879" d="M10045.614 9716.35h12.984c.422 0 .834-.01.861.594.033.74-.484.657-.942.659-2.477 0-4.957.05-7.434-.02-1.039-.029-1.29.316-1.3 1.306s.368 1.191 1.268 1.171c2.269-.053 4.545-.055 6.813.009.541.016 1.591-.519 1.54.611-.048 1.047-1.059.524-1.614.541-2.168.063-4.338.023-6.5.027-.746 0-1.514-.231-1.512 1.071 0 1.221.629 1.151 1.448 1.146q3.563-.028 7.125 0c.478 0 1.134-.177 1.1.659-.034.748-.644.522-1.052.525-3.2.017-6.4.009-9.6.008a1.859 1.859 0 0 1-2.056-1.991c-.045-.867.012-1.741-.019-2.611-.044-1.257.535-2.732-1.554-3.32z" class="cls-1" transform="translate(-10021.042 -9715.358)"/>
        <path id="Path_3880" d="M10103.732 9722.49c-.018-3.156 2.211-5.654 5.059-5.666a5.633 5.633 0 0 1 .115 11.209 5.284 5.284 0 0 1-5.174-5.543zm2.74-.187a6.358 6.358 0 0 0 .871 3.527c.871 1.242 2 1.271 2.879.08a6.92 6.92 0 0 0-.037-7 1.548 1.548 0 0 0-2.779.045 5.776 5.776 0 0 0-.933 3.345z" class="cls-1" transform="translate(-10043.661 -9715.543)"/>
        <path id="Path_3881" d="M10020.9 9716.822a5.443 5.443 0 0 1 5.044 5.723 5.36 5.36 0 0 1-5.271 5.487c-2.845-.089-5.008-2.631-4.931-5.787a5.316 5.316 0 0 1 5.158-5.423zm2.279 5.923a6.634 6.634 0 0 0-.955-3.808c-.88-1.154-1.908-1.161-2.785-.02a7 7 0 0 0-.015 7.01 1.564 1.564 0 0 0 2.786.012 5.766 5.766 0 0 0 .97-3.194z" class="cls-1" transform="translate(-10009.68 -9715.541)"/>
        <path id="Path_3882" d="M10037.608 9723.811c0 2.562-.008 5.124 0 7.685 0 .776-.112 1.475-1.014 1.656-.951.192-1.654.2-1.63-1.2.081-4.561.023-9.122.037-13.683 0-.94.09-1.868-.98-2.361a.548.548 0 0 1-.367-.611c.083-.28.394-.286.654-.288h.311c2.986-.15 2.986-.15 2.986 2.806z" class="cls-1" transform="translate(-10016.592 -9714.822)"/>
        <path id="Path_3883" d="M10125.6 9723.895c0 2.559-.011 5.116 0 7.675 0 .811-.224 1.419-1.126 1.554s-1.541.1-1.521-1.178c.075-4.657.017-9.313.04-13.971 0-.856-.017-1.637-.917-2.084-.227-.113-.465-.329-.389-.6.1-.363.468-.306.77-.339 3.11-.332 3.138-.31 3.138 2.8z" class="cls-1" transform="translate(-10050.592 -9714.766)"/>
        <path id="Path_3884" d="M10098.145 9723.691c0 2.515-.008 5.028.006 7.542a1.778 1.778 0 0 1-.76 1.735 1.633 1.633 0 0 1-1.49.173c-.471-.21-.266-.729-.266-1.112-.014-5.283.018-10.567-.033-15.85-.01-1.016.385-1.19 1.273-1.178.844.014 1.33.093 1.3 1.149-.083 2.513-.03 5.029-.03 7.541z" class="cls-1" transform="translate(-10040.517 -9714.839)"/>
        <path id="Path_3885" d="M10043.8 9732.81h4.365c4.084 0 8.167-.008 12.252.007.463 0 1.1-.226 1.138.62.043.932-.629.757-1.17.762-1.706.011-3.413.041-5.117-.013-.866-.023-1.208.263-1.166 1.14.058 1.127.022 2.257 0 3.386-.017 1.181-.793 1.358-1.785 1.41-1.218.062-.985-.741-.99-1.428a25.092 25.092 0 0 1 .018-2.92c.148-1.344-.428-1.683-1.674-1.593-1.338.095-2.688-.023-4.031.036a1.605 1.605 0 0 1-1.84-1.407z" class="cls-1" transform="translate(-10020.515 -9721.707)"/>
        <path id="Path_3886" d="M10005.871 9720.5c0-1.567.015-3.134-.006-4.7-.011-.711.378-.848.979-.84 1.394.018 2.784 0 4.313.151a31.532 31.532 0 0 0-5.286 5.389z" class="cls-1" transform="translate(-10005.865 -9714.822)"/>
    </g>
</svg>
