<svg xmlns="http://www.w3.org/2000/svg" width="71.793" height="22.357" viewBox="0 0 71.793 22.357">
    <defs>
        <style>
            .cls-1{fill:#b5b5b6}
        </style>
    </defs>
    <g id="Group_519">
        <path id="Path_3848" d="M9266.708 9735.988l-2.894-.006-.163-.154q0-7.433.008-14.867c0-.326.023-.654.034-.98q4.091 0 8.185-.006c.317 0 .665.115.94-.16 3.329.082 5.457 2.84 4.5 5.8a3.619 3.619 0 0 1-1.346 1.762 4.576 4.576 0 0 1 2.1 4.66c-.2.088-.261.2-.059.354a4.341 4.341 0 0 1-4.476 3.6c-.179-.217-.428-.168-.659-.168q-2.757-.006-5.511 0c-.228.003-.479-.046-.659.165zm3.158-2.641v-.037c.807 0 1.618.053 2.419-.012a2.13 2.13 0 0 0 2.184-2.639 2.387 2.387 0 0 0-2.541-1.83c-1.462-.039-2.929.008-4.395-.02-.45-.008-.557.154-.549.566.021 1.137.035 2.273 0 3.41-.017.518.219.582.644.568.74-.021 1.489-.005 2.238-.005zm-.152-7.219c.839 0 1.685.066 2.514-.014a1.63 1.63 0 0 0 1.594-1.971 1.779 1.779 0 0 0-1.881-1.666c-1.318-.055-2.644.031-3.956-.055-.861-.057-1.076.248-1 1.043.078.859-.274 2.006.161 2.52.502.601 1.683.091 2.568.144z" class="cls-1" transform="translate(-9247.822 -9716.697)"/>
        <path id="Path_3849" d="M9253.691 9735.722l.164.156c-1.707.02-3.414.026-5.121.07-.459.012-.619-.312-.834-.581q-2.994-3.759-5.984-7.536c-.283.166-.141.434-.143.64-.014 2.189-.047 4.38.012 6.569.023.787-.23.973-.955.913a20.109 20.109 0 0 0-2.34-.006c-.445.016-.627-.1-.627-.595q.023-7.56 0-15.123c0-.4.076-.61.537-.593 1.076.041 2.414-.333 3.15.178.656.453.176 1.893.2 2.9.033 1.435.01 2.874.01 4.422a4.25 4.25 0 0 0 1.158-1.134q2.613-2.971 5.207-5.957a.855.855 0 0 1 .66-.4c1.523.011 3.045 0 4.74 0-1.338 1.476-2.555 2.824-3.775 4.17-.986 1.085-1.979 2.169-2.963 3.256-.2.213-.432.366-.107.728 2.355 2.627 4.679 5.279 7.011 7.923z" class="cls-1" transform="translate(-9237.863 -9716.593)"/>
        <path id="Path_3850" d="M9293.334 9736c-1.529 0-3.061-.021-4.588.012-.555.01-.777-.1-.773-.729.012-1.971-.02-1.971 1.959-1.971 2.039 0 4.078.008 6.119 0 1.473-.008 2.268-.686 2.389-2a2.153 2.153 0 0 0-1.945-2.469 19.148 19.148 0 0 0-3.141-.1 11.786 11.786 0 0 1-2.234-.148c-2.533-.588-3.8-2.119-3.67-4.545a4.339 4.339 0 0 1 4.184-4.264c2.6-.146 5.215-.066 7.822-.078 1.887-.008 1.85 0 1.889 1.844.016.707-.215.844-.865.832-2.068-.039-4.139-.014-6.209-.012-.3 0-.6 0-.9.018-1.258.082-2.037.781-2.043 1.822-.006 1.088.814 1.809 2.1 1.863a30.565 30.565 0 0 1 4.93.16 4.738 4.738 0 0 1 4.105 5.24 4.792 4.792 0 0 1-5.076 4.523l-4.053.002z" class="cls-1" transform="translate(-9257.011 -9716.651)"/>
        <path id="Path_3851" d="M9341.065 9723.779a2.14 2.14 0 0 1 .161.9h-.317c-.324-.318-.416 0-.55.2a9.471 9.471 0 0 0-7.26-3.842 15.775 15.775 0 0 0-7.5 1.271l-.216-.133c-.359-.289-.5-.535.082-.736.479-.166.931-.418 1.414-.561 4.428-1.3 8.678-1.33 12.477 1.785.128.127.242.418.442.215.181-.178-.045-.348-.206-.467a6.417 6.417 0 0 0-2.577-1.891c-3.972-1.723-7.884-1.2-11.757.357-.131.055-.344.178-.338.254.042.764-.618.869-1.062 1.156a9.01 9.01 0 0 0-2.1 1.668c-.7.824-.727 1.146.031 1.9 1.958 1.953 4.4 2.395 7.035 2.164a9.856 9.856 0 0 1 3.249-.166 11.064 11.064 0 0 1-9.1-.523 5.266 5.266 0 0 1-2.947-4.51c0-.109-.044-.246-.211-.125l-.165-.191a7.075 7.075 0 0 1 2.335-3.734 21.218 21.218 0 0 1 5.433-3.381c3.508-1.715 9.127.123 11.289 3.385.066.1.134.2.044.318l-.448-.189-.312-.285a3.71 3.71 0 0 0-.4-.352c-3.955-2.531-8.09-2.342-12.307-.783a.457.457 0 0 0-.381.525c4.419-1.662 8.747-1.8 12.893.777.063.053.126.1.188.152.252.061.361.877.766.146a2.094 2.094 0 0 0 .709 1.293v.531c-.081.016-.229.02-.234.049-.028.166.076.262.232.307l-.006-.006a.176.176 0 0 0 .188.188l-.009-.01c0 .146-.025.3.175.348.495.617.602 1.483 1.26 1.996zm-.877-.168c.041.264.078.529.391.635.035-.484.035-.484-.333-.83-.066-.115-.132-.234-.207-.344 0-.008-.135.043-.132.064a.463.463 0 0 0 .281.475zm-1.392-3.137a4.812 4.812 0 0 0-2.185-1.58c-3.786-1.625-7.534-1.154-11.248.266-.332.127-1.047.137-.794.7.193.43.653-.062.97-.18 4.43-1.635 8.78-2.076 12.937.773.099.072.206.119.324.022z" class="cls-1" transform="translate(-9269.45 -9714.736)"/>
        <path id="Path_3852" d="M9319.813 9735.345l-.172-.429c.387 0 .475-.157.292-.5-.2-.36-.368-.733-.551-1.1l.508.223c.007.142 0 .289.2.3a5.1 5.1 0 0 0 2.61 2.572c4.181 2.164 8.368 1.605 12.533-.094.25-.1.441-.236.14-.5.038-.424.442-.455.7-.612a10.722 10.722 0 0 0 2.308-1.7c.993-1.036 1.017-1.392-.059-2.348a8.583 8.583 0 0 0-6.876-1.928 7.2 7.2 0 0 1-3.269.075 12.549 12.549 0 0 1 7.229-.221 6.848 6.848 0 0 1 5.044 4.651v-.98h.173l.425.016a3.288 3.288 0 0 1-.26 1.78c-.123-.019-.315-.257-.3-.149.058.443-.864.8-.115 1.271a9.165 9.165 0 0 1-4.781 4.628 6.113 6.113 0 0 0-1.36.836 6.475 6.475 0 0 1-4.632 1.321 10.019 10.019 0 0 1-7.551-3.544l.236-.235c3.988 2.6 11.424 2.968 13.135.644-.266-.138-.453.077-.663.149-4.234 1.454-8.34 1.464-12.227-1.07-.126-.083-.264-.277-.45-.075l.009.011c.132-.381-.1-.4-.372-.369l.012.009c.053-.185-.088-.159-.19-.177a.544.544 0 0 0-.555-.363c.085-.488-.643-.575-.527-1.076l.154-.354c.308.3.519.7.927.892a6.723 6.723 0 0 0 2.235 1.464c3.662 1.58 7.309 1.162 10.924-.172.405-.151 1.257-.116 1.024-.8-.129-.376-.765.117-1.148.258-4.427 1.611-8.749 1.912-12.847-.94-.343-.32-.577-.773-1.081-.9.023-.147-.018-.232-.187-.185l.008.01c.068-.215.012-.353-.23-.378z" class="cls-1" transform="translate(-9269.346 -9720.108)"/>
        <path id="Path_3853" d="M9319.311 9727.4l.165.188a4.985 4.985 0 0 0 1.634 4.28c2.438 2.165 5.359 2.6 8.471 2.311a10.3 10.3 0 0 0 3.2-.8.741.741 0 0 1 1.066.328c.167.45-.412.4-.648.483a14.672 14.672 0 0 1-7.416.735 8.479 8.479 0 0 1-5.5-3.083c-.328-.424-.586-.9-.912-1.415-.2.583.333.9.268 1.358l-.156.068.141.052h.053l-.187.389c-.21-.137-.661.314-.68-.253a9.963 9.963 0 0 1 .501-4.641zm-.1 2.239a.527.527 0 0 0 .025.619c.151-.19.095-.369-.024-.622z" class="cls-1" transform="translate(-9269.108 -9719.625)"/>
        <path id="Path_3854" d="M9319.942 9735.121l.187-.386a9.411 9.411 0 0 0 4.155 3.115 14.077 14.077 0 0 0 10.148-.389c.82-.326.977-.209.93.671a17.154 17.154 0 0 1-8.214 1.3 9.766 9.766 0 0 1-6.335-2.967c-.132-.142-.186-.47-.509-.282v.006c.215-.271-.043-.4-.171-.563z" class="cls-1" transform="translate(-9269.563 -9722.459)"/>
        <path id="Path_3855" d="M9272.846 9719.776c-.275.275-.625.157-.941.157-2.728.01-5.456.007-8.185.007-.01-.215.145-.229.295-.229q4.415.03 8.831.065z" class="cls-1" transform="translate(-9247.849 -9716.658)"/>
        <path id="Path_3856" d="M9319.292 9736.252c.183.366.354.74.55 1.1.185.343.1.5-.292.5-.111-.529-.65-.988-.258-1.6z" class="cls-1" transform="translate(-9269.258 -9723.046)"/>
        <path id="Path_3857" d="M9321.986 9742.96a.546.546 0 0 1 .556.364.18.18 0 0 0 .19.177l-.01-.01a.443.443 0 0 0 .37.37l-.011-.01.207.353-.237.235a3.041 3.041 0 0 1-1.065-1.479z" class="cls-1" transform="translate(-9270.353 -9725.638)"/>
        <path id="Path_3858" d="M9320.878 9740.163l-.151.352c-.479-.169-.5-.626-.641-1.011.139-.029.28-.058.419-.09a.38.38 0 0 0 .229.381l-.006-.012c.008.117.06.19.186.187z" class="cls-1" transform="translate(-9269.619 -9724.266)"/>
        <path id="Path_3859" d="M9286.976 9740.086c-.2-.153-.146-.264.057-.352a.314.314 0 0 1-.057.352z" class="cls-1" transform="translate(-9256.781 -9724.391)"/>
        <path id="Path_3860" d="M9320.242 9736.189c.126.166.385.293.171.563-.2-.014-.2-.162-.2-.3z" class="cls-1" transform="translate(-9269.666 -9723.021)"/>
        <path id="Path_3861" d="M9341.856 9722.447c-.112.1-.218.05-.32-.02-4.156-2.851-8.507-2.408-12.933-.775-.318.118-.778.61-.972.18-.253-.564.461-.574.794-.7 3.715-1.421 7.461-1.889 11.248-.263a4.765 4.765 0 0 1 2.183 1.578z" class="cls-1" transform="translate(-9272.513 -9716.707)"/>
        <path id="Path_3862" d="M9341.095 9719.793c-4.145-2.58-8.474-2.441-12.893-.776a.459.459 0 0 1 .381-.526c4.217-1.561 8.352-1.748 12.308.783a3.611 3.611 0 0 1 .4.352z" class="cls-1" transform="translate(-9272.753 -9715.742)"/>
        <path id="Path_3863" d="M9329.2 9726.986c-.125.04-.178-.037-.215-.135z" class="cls-1" transform="translate(-9273.056 -9719.415)"/>
        <path id="Path_3864" d="M9335.592 9739.008l.225.033c.3.264.109.4-.137.5-4.168 1.7-8.355 2.258-12.537.094a5.119 5.119 0 0 1-2.609-2.574c.324-.187.377.143.508.283a9.759 9.759 0 0 0 6.336 2.965 17.141 17.141 0 0 0 8.214-1.301z" class="cls-1" transform="translate(-9269.791 -9723.336)"/>
        <path id="Path_3865" d="M9323.078 9741.781c4.1 2.851 8.42 2.552 12.846.939.385-.14 1.021-.634 1.15-.261.23.683-.621.648-1.025.8-3.615 1.335-7.262 1.752-10.924.175a6.643 6.643 0 0 1-2.236-1.466z" class="cls-1" transform="translate(-9270.701 -9725.182)"/>
        <path id="Path_3866" d="M9323.979 9744.711l-.207-.354c.187-.2.324-.008.452.074 3.886 2.533 7.991 2.525 12.226 1.07.21-.072.4-.287.662-.15-1.712 2.325-9.145 1.958-13.133-.64z" class="cls-1" transform="translate(-9271.041 -9726.143)"/>
        <path id="Path_3867" d="M9322.5 9741.21l-.189.188c-.408-.194-.619-.592-.927-.892l.032-.2c.5.131.734.585 1.084.904z" class="cls-1" transform="translate(-9270.117 -9724.613)"/>
        <path id="Path_3868" d="M9323.554 9744.189a.447.447 0 0 1-.371-.369c.276-.031.504-.009.371.369z" class="cls-1" transform="translate(-9270.814 -9725.965)"/>
        <path id="Path_3869" d="M9321 9739.795a.379.379 0 0 1-.23-.381c.243.027.297.166.23.381z" class="cls-1" transform="translate(-9269.882 -9724.266)"/>
        <path id="Path_3870" d="M9321.317 9740.191c-.126 0-.179-.067-.185-.187.168-.046.21.041.185.187z" class="cls-1" transform="translate(-9270.023 -9724.49)"/>
        <path id="Path_3871" d="M9323.081 9743.73a.183.183 0 0 1-.19-.176c.102.016.243-.007.19.176z" class="cls-1" transform="translate(-9270.701 -9725.865)"/>
        <path id="Path_3872" d="M9319.437 9731.045c.121.254.175.434.025.621a.531.531 0 0 1-.025-.621z" class="cls-1" transform="translate(-9269.335 -9721.034)"/>
        <path id="Path_3873" d="M9320.088 9734.544a.21.21 0 0 1-.017.12c-.045-.019-.093-.034-.139-.051z" class="cls-1" transform="translate(-9269.559 -9722.386)"/>
        <path id="Path_3874" d="M9344.635 9730.656c-.031.109-.064.219-.1.329a9.093 9.093 0 0 0-2.912-2.818 12.166 12.166 0 0 0-9.834-.571c-.584.2-1.09.375-1.551-.312a9.587 9.587 0 0 1 3.279-1.006 11.857 11.857 0 0 1 8.354 1.2 5.856 5.856 0 0 1 2.764 3.178z" class="cls-1" transform="translate(-9273.539 -9719.096)"/>
    </g>
</svg>
