<svg xmlns="http://www.w3.org/2000/svg" width="62.429" height="17.935" viewBox="0 0 62.429 17.935">
    <defs>
        <style>
            .cls-1{fill:#b5b5b6}
        </style>
    </defs>
    <g id="Group_520">
        <path id="Path_3875" d="M9642.926 9732.666h-5.126v-12.987h-2.766c-.193 0-.194 0-.194.19v12.791h-5.124v-12.971h-2.945v12.971h-5.14v-.156-13.649a4.23 4.23 0 0 1 .59-2.249 3.745 3.745 0 0 1 2.307-1.631 6.558 6.558 0 0 1 1.747-.23h12.025a5.872 5.872 0 0 1 2.441.49 3.508 3.508 0 0 1 2.085 2.708 5.765 5.765 0 0 1 .089 1.021q.01 6.746 0 13.494z" class="cls-1" transform="translate(-9621.633 -9714.737)"/>
        <path id="Path_3876" d="M9673.92 9723.1c.274.014.55.021.824.041a8.191 8.191 0 0 1 3.3.86 4.044 4.044 0 0 1 2.226 3.441 4.515 4.515 0 0 1-.465 2.53 4.318 4.318 0 0 1-2 1.847 7.5 7.5 0 0 1-2.563.731 20.221 20.221 0 0 1-2.078.113q-6.053.015-12.109 0h-.2v-17.921c.041 0 .086-.007.133-.007H9672.083c.7 0 1.41 0 2.111.04a7.049 7.049 0 0 1 3.09.813 3.563 3.563 0 0 1 1.9 2.908 3.748 3.748 0 0 1-.539 2.541 4.05 4.05 0 0 1-1.87 1.466 7.391 7.391 0 0 1-2.379.542l-.478.037zm-.255 4.688v-8.105h-7.615v7.918c0 .188 0 .188.187.188h7.429z" class="cls-1" transform="translate(-9636.781 -9714.735)"/>
        <path id="Path_3877" d="M9712.266 9714.744v4.905h-12.09v8.168h12.167v4.854h-.161c-4.226 0-8.454.007-12.682 0a5.684 5.684 0 0 1-2.713-.611 3.466 3.466 0 0 1-1.835-2.59 6.3 6.3 0 0 1-.087-1.049q-.009-4.749 0-9.5a4.245 4.245 0 0 1 .655-2.386 3.831 3.831 0 0 1 2.341-1.586 6.316 6.316 0 0 1 1.651-.206h12.754z" class="cls-1" transform="translate(-9649.914 -9714.739)"/>
    </g>
</svg>
