<svg xmlns="http://www.w3.org/2000/svg" width="76.534" height="76.534" viewBox="0 0 76.534 76.534">
    <path d="M2762.89 2178.442a38.267 38.267 0 1 1 38.17 38.225 38.347 38.347 0 0 1-38.17-38.225zm38.257 35.284a35.374 35.374 0 0 0 35.308-35.148c.013-19.517-15.756-35.491-35.049-35.5a35.326 35.326 0 1 0-.259 70.652z" transform="translate(-2762.89 -2140.133)"/>
    <path d="M2824.649 2182.248l-11.718 4.365 12.475-30.674 3.743 1.513-9 22.153 11.646-4.335-12.445 31.119-3.747-1.492c2.997-7.507 5.974-14.963 9.046-22.649z" transform="translate(-2777.401 -2144.819)"/>
    <path d="M2789.732 2207.547l15.411-38.36-7.391 2.778c-.471-1.265-.929-2.5-1.422-3.819l16.026-6.061c-5.158 12.846-10.24 25.5-15.4 38.355l7.392-2.772 1.417 3.819z" transform="translate(-2770.661 -2146.642)"/>
</svg>
